<?xml version="1.0" encoding="UTF-8"?>
<svg version="1.1" xmlns="http://www.w3.org/2000/svg" width="1200" height="800">
<path d="M0 0 C13.80570992 11.79516964 22.80416371 27.48870837 25.81640625 45.40625 C25.92583908 47.61508748 25.98483202 49.8266744 26.00927734 52.03808594 C26.02154358 53.00771523 26.02154358 53.00771523 26.03405762 53.99693298 C26.05878034 56.12815473 26.07540631 58.25930976 26.08984375 60.390625 C26.09516743 61.12606789 26.1004911 61.86151077 26.1059761 62.61923981 C26.13266884 66.52267917 26.15204397 70.42608721 26.16650391 74.32958984 C26.179754 77.52617579 26.20744361 80.7221098 26.24853516 83.91845703 C26.5809471 110.3702158 25.08368755 131.47273829 6.81640625 152.40625 C6.29691406 153.02113281 5.77742188 153.63601563 5.2421875 154.26953125 C-5.38131009 165.90988755 -22.32656017 174.31167535 -37.97387695 175.64379883 C-62.14902238 176.73460181 -80.95300455 172.05277885 -99.18359375 155.40625 C-110.82961862 144.11376517 -120.5497094 127.84380949 -121.33076477 111.28640747 C-121.34060898 110.11697601 -121.35045319 108.94754456 -121.3605957 107.74267578 C-121.3671669 107.09304367 -121.3737381 106.44341156 -121.38050842 105.77409363 C-121.40014269 103.63324842 -121.41188846 101.49247342 -121.421875 99.3515625 C-121.42595053 98.61362331 -121.43002605 97.87568413 -121.43422508 97.11538315 C-121.45505455 93.20127396 -121.46936374 89.2871994 -121.47875977 85.37304688 C-121.48975382 81.37131226 -121.52408006 77.37014453 -121.56393147 73.36860847 C-121.59035773 70.25748824 -121.59847483 67.14649704 -121.60204124 64.03527451 C-121.60684887 62.56277561 -121.6182915 61.09028011 -121.63707924 59.61789322 C-121.89532773 38.01816936 -114.6537487 19.41812449 -99.63671875 3.8359375 C-72.11304918 -23.24380191 -29.62423895 -23.1741113 0 0 Z M-90.05859375 14.71875 C-100.63459974 25.88737702 -107.35818086 40.13965343 -107.28125 55.6796875 C-107.27875244 56.72044434 -107.27625488 57.76120117 -107.27368164 58.83349609 C-107.26457764 60.13625488 -107.25547363 61.43901367 -107.24609375 62.78125 C-107.22546875 66.9475 -107.20484375 71.11375 -107.18359375 75.40625 C-91.01359375 75.40625 -74.84359375 75.40625 -58.18359375 75.40625 C-60.16359375 73.09625 -62.14359375 70.78625 -64.18359375 68.40625 C-68.12508764 61.93134776 -67.66301286 55.91663543 -67.62109375 48.53125 C-67.65106445 46.66919922 -67.65106445 46.66919922 -67.68164062 44.76953125 C-67.67777391 37.50784739 -67.18527115 32.53336045 -63.18359375 26.40625 C-60.63943308 24.04824742 -58.0673649 22.3287641 -55.18359375 20.40625 C-54.76750103 18.08324616 -54.76750103 18.08324616 -54.890625 15.3984375 C-54.90029297 14.41230469 -54.90996094 13.42617188 -54.91992188 12.41015625 C-54.94505859 11.37761719 -54.97019531 10.34507812 -54.99609375 9.28125 C-55.00962891 8.24097656 -55.02316406 7.20070313 -55.03710938 6.12890625 C-55.07254147 3.55417373 -55.12194154 0.9804667 -55.18359375 -1.59375 C-68.37121443 -1.81605206 -80.81320133 5.86118865 -90.05859375 14.71875 Z M-53.18359375 35.40625 C-54.61036648 39.68656818 -54.44824975 43.79667242 -54.49609375 48.28125 C-54.52509766 49.17972656 -54.55410156 50.07820312 -54.58398438 51.00390625 C-54.62497903 55.27365749 -54.54995464 57.76691433 -52.390625 61.53515625 C-50.20485205 63.78869018 -50.20485205 63.78869018 -46.55859375 63.46875 C-43.17208567 62.78855041 -43.17208567 62.78855041 -41.98925781 60.62890625 C-41.10920592 58.20102977 -40.92531422 56.35845981 -40.91796875 53.78125 C-40.91539062 52.90984375 -40.9128125 52.0384375 -40.91015625 51.140625 C-40.91789062 50.23828125 -40.925625 49.3359375 -40.93359375 48.40625 C-40.92585938 47.50390625 -40.918125 46.6015625 -40.91015625 45.671875 C-40.91273438 44.80046875 -40.9153125 43.9290625 -40.91796875 43.03125 C-40.92022461 42.23976563 -40.92248047 41.44828125 -40.92480469 40.6328125 C-41.21923938 38.09956304 -41.75079074 36.51750334 -43.18359375 34.40625 C-48.45949857 33.04755611 -48.45949857 33.04755611 -53.18359375 35.40625 Z M-107.18359375 89.40625 C-107.18359375 112.46889826 -105.47371965 128.75753642 -89.18359375 145.40625 C-74.82907614 157.7041262 -59.06654969 162.84191297 -40.18359375 161.40625 C-24.27150692 159.22402095 -10.1006783 151.17591361 0.15625 138.78515625 C11.20274363 122.95618067 11.81640625 108.94338181 11.81640625 89.40625 C-27.45359375 89.40625 -66.72359375 89.40625 -107.18359375 89.40625 Z " fill="#000000" transform="translate(171.18359375,549.59375)"/>
<path d="M0 0 C13.80570992 11.79516964 22.80416371 27.48870837 25.81640625 45.40625 C25.92583908 47.61508748 25.98483202 49.8266744 26.00927734 52.03808594 C26.02154358 53.00771523 26.02154358 53.00771523 26.03405762 53.99693298 C26.05878034 56.12815473 26.07540631 58.25930976 26.08984375 60.390625 C26.09516743 61.12606789 26.1004911 61.86151077 26.1059761 62.61923981 C26.13266884 66.52267917 26.15204397 70.42608721 26.16650391 74.32958984 C26.179754 77.52617579 26.20744361 80.7221098 26.24853516 83.91845703 C26.5809471 110.3702158 25.08368755 131.47273829 6.81640625 152.40625 C6.29691406 153.02113281 5.77742188 153.63601562 5.2421875 154.26953125 C-5.38131009 165.90988755 -22.32656017 174.31167535 -37.97387695 175.64379883 C-62.14902238 176.73460181 -80.95300455 172.05277885 -99.18359375 155.40625 C-110.82961862 144.11376517 -120.5497094 127.84380949 -121.33076477 111.28640747 C-121.34060898 110.11697601 -121.35045319 108.94754456 -121.3605957 107.74267578 C-121.3671669 107.09304367 -121.3737381 106.44341156 -121.38050842 105.77409363 C-121.40014269 103.63324842 -121.41188846 101.49247342 -121.421875 99.3515625 C-121.42595053 98.61362331 -121.43002605 97.87568413 -121.43422508 97.11538315 C-121.45505455 93.20127396 -121.46936374 89.2871994 -121.47875977 85.37304688 C-121.48975382 81.37131226 -121.52408006 77.37014453 -121.56393147 73.36860847 C-121.59035773 70.25748824 -121.59847483 67.14649704 -121.60204124 64.03527451 C-121.60684887 62.56277561 -121.6182915 61.09028011 -121.63707924 59.61789322 C-121.89532773 38.01816936 -114.6537487 19.41812449 -99.63671875 3.8359375 C-72.11304918 -23.24380191 -29.62423895 -23.1741113 0 0 Z M-40.18359375 -1.59375 C-40.41717435 1.9467929 -40.55839176 5.48535068 -40.68359375 9.03125 C-40.750625 10.03027344 -40.81765625 11.02929688 -40.88671875 12.05859375 C-41.17218888 17.60056315 -41.17218888 17.60056315 -38.5078125 22.17480469 C-37.09463172 23.14292529 -35.66151344 24.08251741 -34.2109375 24.99365234 C-30.69017636 27.44682238 -29.26372581 30.30829443 -28.18359375 34.40625 C-27.64073781 39.08765286 -27.62449552 43.69809105 -27.68359375 48.40625 C-27.668125 49.63859375 -27.65265625 50.8709375 -27.63671875 52.140625 C-27.68330686 62.99565497 -29.52073937 67.74339562 -37.18359375 75.40625 C-21.01359375 75.40625 -4.84359375 75.40625 11.81640625 75.40625 C12.17269059 52.24776759 12.10388602 34.32063185 -3.703125 15.9453125 C-12.14922732 7.29969595 -25.32007541 -1.4365055 -37.87890625 -1.63671875 C-39.01972656 -1.61544922 -39.01972656 -1.61544922 -40.18359375 -1.59375 Z M-53.18359375 35.40625 C-54.61036648 39.68656818 -54.44824975 43.79667242 -54.49609375 48.28125 C-54.52509766 49.17972656 -54.55410156 50.07820313 -54.58398438 51.00390625 C-54.62497903 55.27365749 -54.54995464 57.76691433 -52.390625 61.53515625 C-50.20485205 63.78869018 -50.20485205 63.78869018 -46.55859375 63.46875 C-43.17208567 62.78855041 -43.17208567 62.78855041 -41.98925781 60.62890625 C-41.10920592 58.20102977 -40.92531422 56.35845981 -40.91796875 53.78125 C-40.91539062 52.90984375 -40.9128125 52.0384375 -40.91015625 51.140625 C-40.91789062 50.23828125 -40.925625 49.3359375 -40.93359375 48.40625 C-40.92585938 47.50390625 -40.918125 46.6015625 -40.91015625 45.671875 C-40.91273438 44.80046875 -40.9153125 43.9290625 -40.91796875 43.03125 C-40.92022461 42.23976563 -40.92248047 41.44828125 -40.92480469 40.6328125 C-41.21923938 38.09956304 -41.75079074 36.51750334 -43.18359375 34.40625 C-48.45949857 33.04755611 -48.45949857 33.04755611 -53.18359375 35.40625 Z M-107.18359375 89.40625 C-107.18359375 112.46889826 -105.47371965 128.75753642 -89.18359375 145.40625 C-74.82907614 157.7041262 -59.06654969 162.84191297 -40.18359375 161.40625 C-24.27150692 159.22402095 -10.1006783 151.17591361 0.15625 138.78515625 C11.20274363 122.95618067 11.81640625 108.94338181 11.81640625 89.40625 C-27.45359375 89.40625 -66.72359375 89.40625 -107.18359375 89.40625 Z " fill="#000000" transform="translate(171.18359375,93.59375)"/>
<path d="M0 0 C13.80570992 11.79516964 22.80416371 27.48870837 25.81640625 45.40625 C25.92583908 47.61508748 25.98483202 49.8266744 26.00927734 52.03808594 C26.02154358 53.00771523 26.02154358 53.00771523 26.03405762 53.99693298 C26.05878034 56.12815473 26.07540631 58.25930976 26.08984375 60.390625 C26.09516743 61.12606789 26.1004911 61.86151077 26.1059761 62.61923981 C26.13266884 66.52267917 26.15204397 70.42608721 26.16650391 74.32958984 C26.179754 77.52617579 26.20744361 80.7221098 26.24853516 83.91845703 C26.5809471 110.3702158 25.08368755 131.47273829 6.81640625 152.40625 C6.29691406 153.02113281 5.77742188 153.63601563 5.2421875 154.26953125 C-5.38131009 165.90988755 -22.32656017 174.31167535 -37.97387695 175.64379883 C-62.14902238 176.73460181 -80.95300455 172.05277885 -99.18359375 155.40625 C-110.82961862 144.11376517 -120.5497094 127.84380949 -121.33076477 111.28640747 C-121.34060898 110.11697601 -121.35045319 108.94754456 -121.3605957 107.74267578 C-121.3671669 107.09304367 -121.3737381 106.44341156 -121.38050842 105.77409363 C-121.40014269 103.63324842 -121.41188846 101.49247342 -121.421875 99.3515625 C-121.42595053 98.61362331 -121.43002605 97.87568413 -121.43422508 97.11538315 C-121.45505455 93.20127396 -121.46936374 89.2871994 -121.47875977 85.37304688 C-121.48975382 81.37131226 -121.52408006 77.37014453 -121.56393147 73.36860847 C-121.59035773 70.25748824 -121.59847483 67.14649704 -121.60204124 64.03527451 C-121.60684887 62.56277561 -121.6182915 61.09028011 -121.63707924 59.61789322 C-121.89532773 38.01816936 -114.6537487 19.41812449 -99.63671875 3.8359375 C-72.11304918 -23.24380191 -29.62423895 -23.1741113 0 0 Z M-90.05859375 14.71875 C-100.63459974 25.88737702 -107.35818086 40.13965343 -107.28125 55.6796875 C-107.27875244 56.72044434 -107.27625488 57.76120117 -107.27368164 58.83349609 C-107.26457764 60.13625488 -107.25547363 61.43901367 -107.24609375 62.78125 C-107.22546875 66.9475 -107.20484375 71.11375 -107.18359375 75.40625 C-91.01359375 75.40625 -74.84359375 75.40625 -58.18359375 75.40625 C-60.16359375 73.09625 -62.14359375 70.78625 -64.18359375 68.40625 C-68.12508764 61.93134776 -67.66301286 55.91663543 -67.62109375 48.53125 C-67.65106445 46.66919922 -67.65106445 46.66919922 -67.68164062 44.76953125 C-67.67777391 37.50784739 -67.18527115 32.53336045 -63.18359375 26.40625 C-60.63943308 24.04824742 -58.0673649 22.3287641 -55.18359375 20.40625 C-54.76750103 18.08324616 -54.76750103 18.08324616 -54.890625 15.3984375 C-54.90029297 14.41230469 -54.90996094 13.42617188 -54.91992188 12.41015625 C-54.94505859 11.37761719 -54.97019531 10.34507812 -54.99609375 9.28125 C-55.00962891 8.24097656 -55.02316406 7.20070313 -55.03710938 6.12890625 C-55.07254147 3.55417373 -55.12194154 0.9804667 -55.18359375 -1.59375 C-68.37121443 -1.81605206 -80.81320133 5.86118865 -90.05859375 14.71875 Z M-40.18359375 -1.59375 C-40.41717435 1.9467929 -40.55839176 5.48535068 -40.68359375 9.03125 C-40.750625 10.03027344 -40.81765625 11.02929688 -40.88671875 12.05859375 C-41.17218888 17.60056315 -41.17218888 17.60056315 -38.5078125 22.17480469 C-37.09463172 23.14292529 -35.66151344 24.08251741 -34.2109375 24.99365234 C-30.69017636 27.44682238 -29.26372581 30.30829443 -28.18359375 34.40625 C-27.64073781 39.08765286 -27.62449552 43.69809105 -27.68359375 48.40625 C-27.668125 49.63859375 -27.65265625 50.8709375 -27.63671875 52.140625 C-27.68330686 62.99565497 -29.52073937 67.74339562 -37.18359375 75.40625 C-21.01359375 75.40625 -4.84359375 75.40625 11.81640625 75.40625 C12.17269059 52.24776759 12.10388602 34.32063185 -3.703125 15.9453125 C-12.14922732 7.29969595 -25.32007541 -1.4365055 -37.87890625 -1.63671875 C-39.01972656 -1.61544922 -39.01972656 -1.61544922 -40.18359375 -1.59375 Z M-107.18359375 89.40625 C-107.18359375 112.46889826 -105.47371965 128.75753642 -89.18359375 145.40625 C-74.82907614 157.7041262 -59.06654969 162.84191297 -40.18359375 161.40625 C-24.27150692 159.22402095 -10.1006783 151.17591361 0.15625 138.78515625 C11.20274363 122.95618067 11.81640625 108.94338181 11.81640625 89.40625 C-27.45359375 89.40625 -66.72359375 89.40625 -107.18359375 89.40625 Z " fill="#000000" transform="translate(171.18359375,321.59375)"/>
<path d="M0 0 C2.41825018 1.65958346 4.19996325 3.10446599 6.1875 5.1875 C8.26768488 4.18714143 10.23158051 3.15880854 12.16796875 1.8984375 C20.52835767 -3.1621873 30.44585787 -3.40633904 39.84765625 -1.18359375 C44.99190433 1.02674791 48.6599993 5.26128845 51.1875 10.1875 C53.30841564 16.95970891 53.46440869 23.24448272 53.41796875 30.30859375 C53.41751053 31.44909683 53.41705231 32.58959991 53.4165802 33.7646637 C53.41357235 36.16074675 53.40573034 38.55682811 53.39331055 40.95288086 C53.37493878 44.6372766 53.37280185 48.32142239 53.37304688 52.00585938 C53.36813555 54.33593969 53.36230892 56.6660183 53.35546875 58.99609375 C53.35435593 60.10327255 53.3532431 61.21045135 53.35209656 62.35118103 C53.34571671 63.36636307 53.33933685 64.3815451 53.33276367 65.42749023 C53.32895187 66.3249144 53.32514008 67.22233856 53.32121277 68.1469574 C53.1875 70.1875 53.1875 70.1875 52.1875 71.1875 C49.85589945 71.28659302 47.52120058 71.31720504 45.1875 71.3125 C43.90875 71.31507813 42.63 71.31765625 41.3125 71.3203125 C38.1875 71.1875 38.1875 71.1875 37.1875 70.1875 C37.07539359 68.67981235 37.03077021 67.16702931 37.01391602 65.65527344 C37.00042618 64.69047058 36.98693634 63.72566772 36.97303772 62.73162842 C36.95738014 61.15517548 36.95738014 61.15517548 36.94140625 59.546875 C36.90845941 57.33983991 36.8752479 55.13280876 36.84179688 52.92578125 C36.79441322 49.43215737 36.7500118 45.93854851 36.71069336 42.44482422 C36.67094732 39.08283307 36.61939664 35.72117982 36.56640625 32.359375 C36.5579921 31.3165033 36.54957794 30.27363159 36.54090881 29.19915771 C36.52426682 28.22174622 36.50762482 27.24433472 36.49047852 26.23730469 C36.47501732 24.95276398 36.47501732 24.95276398 36.45924377 23.64227295 C36.02282081 19.69988537 35.10242254 16.96787511 32.0625 14.375 C28.30581316 12.823325 25.19735676 12.58561481 21.1875 13.1875 C17.47555003 14.83725554 15.33424601 16.75270639 13.1875 20.1875 C12.24015125 23.02954626 12.04286346 24.87442179 11.99804688 27.82666016 C11.97297058 29.23294174 11.97297058 29.23294174 11.9473877 30.66763306 C11.93381226 31.67707977 11.92023682 32.68652649 11.90625 33.7265625 C11.88784058 34.7631601 11.86943115 35.79975769 11.85046387 36.86776733 C11.77166484 41.31050152 11.70385282 45.75338748 11.63525391 50.19628906 C11.58367812 53.43562676 11.52638348 56.67482786 11.46875 59.9140625 C11.45517456 60.92755768 11.44159912 61.94105286 11.4276123 62.98526001 C11.40253601 64.38208511 11.40253601 64.38208511 11.37695312 65.80712891 C11.35816101 67.04264999 11.35816101 67.04264999 11.33898926 68.3031311 C11.1875 70.1875 11.1875 70.1875 10.1875 71.1875 C7.85589945 71.28659302 5.52120058 71.31720504 3.1875 71.3125 C1.90875 71.31507813 0.63 71.31765625 -0.6875 71.3203125 C-3.8125 71.1875 -3.8125 71.1875 -4.8125 70.1875 C-4.91949488 68.6489785 -4.95871285 67.1056711 -4.97021484 65.56347656 C-4.98047699 64.57865295 -4.99073914 63.59382935 -5.00131226 62.5791626 C-5.00861359 61.50632019 -5.01591492 60.43347778 -5.0234375 59.328125 C-5.05151187 57.07551364 -5.08017637 54.82290957 -5.109375 52.5703125 C-5.15062405 49.00423427 -5.18749415 45.43829132 -5.21386719 41.87207031 C-5.24147233 38.44046552 -5.2873541 35.00948831 -5.3359375 31.578125 C-5.33919037 30.51337952 -5.34244324 29.44863403 -5.34579468 28.35162354 C-5.39073734 21.25778335 -5.39073734 21.25778335 -8.8125 15.1875 C-11.82831237 12.84186816 -15.02719743 12.83163389 -18.78125 12.9296875 C-21.91068664 13.32688523 -24.1818436 14.49636374 -26.8125 16.1875 C-28.97109554 19.42539332 -29.06845576 20.34518804 -29.09960938 24.08618164 C-29.11302368 25.08053726 -29.12643799 26.07489288 -29.14025879 27.09938049 C-29.14553589 28.17131149 -29.15081299 29.24324249 -29.15625 30.34765625 C-29.1708728 31.44847031 -29.18549561 32.54928436 -29.20056152 33.68345642 C-29.26295183 38.40189055 -29.30251152 43.12045652 -29.34423828 47.83911133 C-29.377878 51.27960187 -29.42300996 54.71980883 -29.46875 58.16015625 C-29.4740271 59.23411148 -29.4793042 60.30806671 -29.48474121 61.41456604 C-29.49815552 62.4057695 -29.51156982 63.39697296 -29.52539062 64.41821289 C-29.53268188 65.29296768 -29.53997314 66.16772247 -29.54748535 67.06898499 C-29.8125 69.1875 -29.8125 69.1875 -31.8125 71.1875 C-34.81640625 71.41796875 -34.81640625 71.41796875 -38.375 71.375 C-39.55191406 71.36855469 -40.72882813 71.36210937 -41.94140625 71.35546875 C-44.8125 71.1875 -44.8125 71.1875 -45.8125 70.1875 C-45.90682985 67.97882169 -45.92992431 65.76708479 -45.92602539 63.55639648 C-45.92617142 62.86374695 -45.92631744 62.17109741 -45.9264679 61.4574585 C-45.92576874 59.15780554 -45.91797628 56.85823263 -45.91015625 54.55859375 C-45.90829208 52.96818588 -45.90686817 51.37777743 -45.90586853 49.78736877 C-45.90204329 45.5935407 -45.89221295 41.39974705 -45.88116455 37.20593262 C-45.87095057 32.92961086 -45.86637094 28.65328356 -45.86132812 24.37695312 C-45.85059068 15.98045116 -45.83299384 7.58398382 -45.8125 -0.8125 C-40.8625 -0.8125 -35.9125 -0.8125 -30.8125 -0.8125 C-30.4825 0.1775 -30.1525 1.1675 -29.8125 2.1875 C-29.3484375 1.89875 -28.884375 1.61 -28.40625 1.3125 C-20.25908898 -3.06507905 -8.52443179 -4.08857006 0 0 Z " fill="#666666" transform="translate(531.8125,374.8125)"/>
<path d="M0 0 C0.81357468 -0.00570007 1.62714935 -0.01140015 2.46537781 -0.01727295 C4.19801528 -0.02674719 5.93067097 -0.03326649 7.66333008 -0.03710938 C10.27524139 -0.04669525 12.8863246 -0.07764264 15.49804688 -0.109375 C28.27218194 -0.19163179 41.05007253 0.0970803 51.01171875 9.203125 C57.89527551 17.77042945 58.00286471 27.61684261 57.01171875 38.203125 C54.86776717 46.31285488 48.71945813 50.80521323 42.01171875 55.203125 C43.11391972 57.28751652 44.21846338 59.37061905 45.32421875 61.453125 C45.67162109 62.10974121 46.01902344 62.76635742 46.37695312 63.44287109 C48.52735738 67.48656605 50.73088798 71.49371541 52.9921875 75.4765625 C53.49258545 76.3644043 53.9929834 77.25224609 54.50854492 78.16699219 C55.49873379 79.91996582 56.49740865 81.66817718 57.50512695 83.41113281 C57.96105225 84.22163086 58.41697754 85.03212891 58.88671875 85.8671875 C59.29664063 86.58342285 59.7065625 87.2996582 60.12890625 88.03759766 C61.16672796 90.58336053 61.2439949 92.47794508 61.01171875 95.203125 C60.01171875 96.203125 60.01171875 96.203125 56.6328125 96.30078125 C55.23824798 96.29410869 53.84370132 96.28215032 52.44921875 96.265625 C51.3828418 96.25885742 51.3828418 96.25885742 50.29492188 96.25195312 C48.53381862 96.24013364 46.77275839 96.22219763 45.01171875 96.203125 C40.02994931 87.47901185 35.155293 78.70445018 30.44921875 69.828125 C30.00787598 69.00207764 29.5665332 68.17603027 29.11181641 67.32495117 C28.70624512 66.55513916 28.30067383 65.78532715 27.8828125 64.9921875 C27.3403186 63.96665771 27.3403186 63.96665771 26.78686523 62.92041016 C26.01171875 61.203125 26.01171875 61.203125 26.01171875 59.203125 C19.74171875 59.203125 13.47171875 59.203125 7.01171875 59.203125 C7.02332031 61.79027344 7.03492188 64.37742187 7.046875 67.04296875 C7.05466537 69.53832883 7.06074224 72.03368757 7.06665039 74.52905273 C7.07169079 76.26831668 7.07852305 78.00757636 7.0871582 79.74682617 C7.09923667 82.24138437 7.10494983 84.73588673 7.109375 87.23046875 C7.11453629 88.01276352 7.11969757 88.79505829 7.12501526 89.60105896 C7.12521101 91.46879614 7.07371569 93.33641704 7.01171875 95.203125 C6.01171875 96.203125 6.01171875 96.203125 2.88671875 96.3359375 C1.60796875 96.33335937 0.32921875 96.33078125 -0.98828125 96.328125 C-2.26703125 96.33070313 -3.54578125 96.33328125 -4.86328125 96.3359375 C-7.98828125 96.203125 -7.98828125 96.203125 -8.98828125 95.203125 C-9.08886368 92.28654871 -9.12443336 89.39361554 -9.11767578 86.4765625 C-9.1194281 85.56118713 -9.12118042 84.64581177 -9.12298584 83.70269775 C-9.12740586 80.66115451 -9.12446584 77.61966889 -9.12109375 74.578125 C-9.12176675 72.4744465 -9.12273673 70.37076808 -9.12399292 68.26708984 C-9.1254701 63.85188051 -9.1233147 59.43669137 -9.11865234 55.02148438 C-9.11295505 49.34819939 -9.11623395 43.67496171 -9.12222481 38.00167847 C-9.12582989 33.65583944 -9.12469208 29.31001172 -9.12209702 24.96417236 C-9.1214276 22.8716837 -9.12225668 20.77919403 -9.12457657 18.68670654 C-9.12710223 15.76767234 -9.12326373 12.84871588 -9.11767578 9.9296875 C-9.11970001 9.0558844 -9.12172424 8.1820813 -9.12380981 7.28179932 C-9.09510313 -0.76939952 -7.36905665 0.03972309 0 0 Z M7.01171875 15.203125 C7.01171875 24.773125 7.01171875 34.343125 7.01171875 44.203125 C10.47671875 44.285625 13.94171875 44.368125 17.51171875 44.453125 C18.58744141 44.48954102 19.66316406 44.52595703 20.77148438 44.56347656 C27.06760999 44.63549866 31.77774154 43.84368208 37.01171875 40.203125 C40.01439205 37.00673084 40.93001628 34.28568267 41.26171875 29.890625 C40.90070104 24.5656138 39.42640117 21.51170623 35.51171875 17.890625 C31.79635413 15.38275388 29.06314195 15.08129393 24.6875 15.10546875 C23.29785034 15.10921509 23.29785034 15.10921509 21.88012695 15.11303711 C20.11995239 15.12669312 20.11995239 15.12669312 18.32421875 15.140625 C12.72453125 15.1715625 12.72453125 15.1715625 7.01171875 15.203125 Z " fill="#666666" transform="translate(259.98828125,124.796875)"/>
<path d="M0 0 C1.79244141 0.01740234 1.79244141 0.01740234 3.62109375 0.03515625 C5.41740234 0.04869141 5.41740234 0.04869141 7.25 0.0625 C8.17683594 0.07410156 9.10367188 0.08570313 10.05859375 0.09765625 C12.18137044 5.52342006 13.90588466 10.88702599 15.3203125 16.53515625 C15.51583206 17.30069824 15.71135162 18.06624023 15.91279602 18.85498047 C16.52810631 21.26815796 17.1372039 23.68285172 17.74609375 26.09765625 C18.1656034 27.7475007 18.5855216 29.39724134 19.00585938 31.046875 C20.02815873 35.06261873 21.04489468 39.07973332 22.05859375 43.09765625 C22.30504639 42.32800537 22.55149902 41.55835449 22.80541992 40.76538086 C27.15568214 27.1866744 31.50550265 13.61005565 36.05859375 0.09765625 C40.34859375 0.09765625 44.63859375 0.09765625 49.05859375 0.09765625 C49.64145142 1.99825806 49.64145142 1.99825806 50.23608398 3.93725586 C51.67350676 8.62150207 53.11504804 13.30447216 54.55786133 17.98706055 C55.18269136 20.01698585 55.80639186 22.04725919 56.42895508 24.07788086 C57.32208894 26.99033567 58.21922829 29.90152986 59.1171875 32.8125 C59.53598427 34.18280617 59.53598427 34.18280617 59.96324158 35.58079529 C60.22343582 36.42159134 60.48363007 37.26238739 60.75170898 38.12866211 C61.09479347 39.24451942 61.09479347 39.24451942 61.44480896 40.38291931 C61.92338752 42.10493067 61.92338752 42.10493067 63.05859375 43.09765625 C66.68859375 28.90765625 70.31859375 14.71765625 74.05859375 0.09765625 C78.67859375 0.09765625 83.29859375 0.09765625 88.05859375 0.09765625 C89.04859375 1.08765625 89.04859375 1.08765625 90.05859375 2.09765625 C88.76614543 9.80046868 86.35458158 17.2847076 84.1796875 24.77734375 C83.8035748 26.08002405 83.42768873 27.3827698 83.05201721 28.68557739 C82.26948732 31.39731187 81.48520939 34.10853177 80.69946289 36.81933594 C79.69286252 40.29209699 78.68921369 43.76570181 77.68667507 47.23963737 C76.72693177 50.56497193 75.76592629 53.88994122 74.8046875 57.21484375 C74.26405922 59.0850972 74.26405922 59.0850972 73.71250916 60.99313354 C73.37868729 62.14508209 73.04486542 63.29703064 72.70092773 64.48388672 C72.40717758 65.4982077 72.11342743 66.51252869 71.81077576 67.55758667 C71.26082893 69.41472123 70.67107969 71.26019842 70.05859375 73.09765625 C65.76859375 73.09765625 61.47859375 73.09765625 57.05859375 73.09765625 C53.40198667 64.43771967 50.61798239 55.57397048 47.87109375 46.59765625 C47.1963974 44.40242589 46.52050751 42.20757656 45.84269714 40.01330566 C45.42444438 38.65837227 45.00811442 37.30284344 44.59394836 35.94665527 C43.86553396 33.58021455 43.16808773 31.3166442 42.05859375 29.09765625 C41.89794937 29.61939423 41.73730499 30.1411322 41.5717926 30.67868042 C39.90306185 36.097143 38.23190666 41.51485347 36.55932617 46.93212891 C35.93500238 48.95537338 35.31130206 50.97881036 34.68823242 53.00244141 C33.79378546 55.90708142 32.89711622 58.81102722 32 61.71484375 C31.72080215 62.62321991 31.44160431 63.53159607 31.15394592 64.46749878 C30.89375168 65.3082193 30.63355743 66.14893982 30.36547852 67.01513672 C30.13675552 67.75682098 29.90803253 68.49850525 29.67237854 69.26266479 C29.05859375 71.09765625 29.05859375 71.09765625 28.05859375 73.09765625 C23.76859375 73.09765625 19.47859375 73.09765625 15.05859375 73.09765625 C10.49412331 58.94727761 6.07908235 44.76212148 1.92138672 30.48657227 C1.33686496 28.48705798 0.74718625 26.4890453 0.15283203 24.49243164 C-0.72287252 21.55013067 -1.58381457 18.60387388 -2.44140625 15.65625 C-2.70896729 14.76675156 -2.97652832 13.87725311 -3.25219727 12.96080017 C-5.46127477 5.25303046 -5.46127477 5.25303046 -3.94140625 1.09765625 C-2.94140625 0.09765625 -2.94140625 0.09765625 0 0 Z " fill="#666666" transform="translate(684.94140625,603.90234375)"/>
<path d="M0 0 C4.95 0 9.9 0 15 0 C18.63 13.86 22.26 27.72 26 42 C27.381875 37.854375 28.76375 33.70875 30.1875 29.4375 C33.45833333 19.625 36.72916667 9.8125 40 0 C44.29 0 48.58 0 53 0 C53.59167969 1.84722656 54.18335938 3.69445312 54.79296875 5.59765625 C55.38543679 7.44476249 55.97791165 9.29186655 56.57055664 11.13891602 C57.16807239 13.00192614 57.76471495 14.86521626 58.36132812 16.72851562 C58.75126953 17.94345703 59.14121094 19.15839844 59.54296875 20.41015625 C60.0692688 22.05189819 60.0692688 22.05189819 60.60620117 23.72680664 C62.7051334 30.16184093 64.85955185 36.57865555 67 43 C70.63 28.81 74.26 14.62 78 0 C82.62 0 87.24 0 92 0 C92.99 0.99 92.99 0.99 94 2 C92.70755168 9.70281243 90.29598783 17.18705135 88.12109375 24.6796875 C87.74498105 25.9823678 87.36909498 27.28511355 86.99342346 28.58792114 C86.21089357 31.29965562 85.42661564 34.01087552 84.64086914 36.72167969 C83.63426877 40.19444074 82.63061994 43.66804556 81.62808132 47.14198112 C80.66833802 50.46731568 79.70733254 53.79228497 78.74609375 57.1171875 C78.20546547 58.98744095 78.20546547 58.98744095 77.65391541 60.89547729 C77.32009354 62.04742584 76.98627167 63.19937439 76.64233398 64.38623047 C76.34858383 65.40055145 76.05483368 66.41487244 75.75218201 67.45993042 C75.20223518 69.31706498 74.61248594 71.16254217 74 73 C69.71 73 65.42 73 61 73 C58.89928884 67.48529263 56.93640413 61.94561717 55.08203125 56.34375 C54.81992355 55.55601196 54.55781586 54.76827393 54.2877655 53.95666504 C53.46125131 51.47158118 52.63683992 48.98580583 51.8125 46.5 C51.24818651 44.80203692 50.68373466 43.10411982 50.11914062 41.40625 C48.74449516 37.27136263 47.37173348 33.13585428 46 29 C45.83935562 29.52173798 45.67871124 30.04347595 45.51319885 30.58102417 C43.8444681 35.99948675 42.17331291 41.41719722 40.50073242 46.83447266 C39.87640863 48.85771713 39.25270831 50.88115411 38.62963867 52.90478516 C37.73519171 55.80942517 36.83852247 58.71337097 35.94140625 61.6171875 C35.6622084 62.52556366 35.38301056 63.43393982 35.09535217 64.36984253 C34.83515793 65.21056305 34.57496368 66.05128357 34.30688477 66.91748047 C34.07816177 67.65916473 33.84943878 68.400849 33.61378479 69.16500854 C33 71 33 71 32 73 C27.71 73 23.42 73 19 73 C14.61032651 59.36703031 10.47576828 45.66874734 6.51098633 31.90625 C5.87100746 29.69226905 5.22603234 27.47972705 4.57641602 25.26855469 C3.62470748 22.0284337 2.68766646 18.78439491 1.75390625 15.5390625 C1.31504845 14.05945541 1.31504845 14.05945541 0.86732483 12.54995728 C0.60632492 11.63064423 0.34532501 10.71133118 0.07641602 9.76416016 C-0.15641586 8.96209137 -0.38924774 8.16002258 -0.62913513 7.33364868 C-1 5 -1 5 0 0 Z " fill="#666666" transform="translate(844,148)"/>
<path d="M0 0 C1.1467495 0.00607269 1.1467495 0.00607269 2.31666565 0.01226807 C3.10900101 0.01035461 3.90133636 0.00844116 4.71768188 0.00646973 C6.40147721 0.00510642 8.08528299 0.00881298 9.76905823 0.01715088 C12.31056855 0.02772149 14.85135117 0.01732761 17.39283752 0.00445557 C30.95731746 -0.00798562 44.28062254 0.22774281 55.0315094 9.65679932 C61.64503171 17.40993988 63.11878554 26.45453891 62.4143219 36.27789307 C61.04807205 44.16277566 57.88012069 50.97269735 51.34010315 55.81304932 C41.8246949 61.50900923 32.2077249 61.55294808 21.3518219 61.40289307 C20.10465393 61.39386963 18.85748596 61.38484619 17.57252502 61.37554932 C14.51958686 61.35215515 11.46705884 61.31937481 8.4143219 61.27789307 C8.42217712 62.81497925 8.42217712 62.81497925 8.43019104 64.38311768 C8.44824159 68.17184583 8.4597541 71.96057016 8.46925354 75.74932861 C8.47429364 77.39158771 8.48112568 79.0338423 8.48976135 80.67608643 C8.50184115 83.03164785 8.50755329 85.38715015 8.51197815 87.74273682 C8.51713943 88.48128403 8.52230072 89.21983124 8.52761841 89.98075867 C8.5278144 91.74687395 8.47626909 93.51286452 8.4143219 95.27789307 C7.4143219 96.27789307 7.4143219 96.27789307 4.2893219 96.41070557 C3.0105719 96.40812744 1.7318219 96.40554932 0.4143219 96.40289307 C-0.8644281 96.40547119 -2.1431781 96.40804932 -3.4606781 96.41070557 C-6.5856781 96.27789307 -6.5856781 96.27789307 -7.5856781 95.27789307 C-7.6915727 92.39720472 -7.73245507 89.54036279 -7.73094177 86.65899658 C-7.73430038 85.75498108 -7.737659 84.85096558 -7.74111938 83.91955566 C-7.75065982 80.91528978 -7.75257403 77.91107943 -7.75364685 74.90679932 C-7.75685724 72.82793657 -7.76022115 70.74907405 -7.76373291 68.67021179 C-7.7697319 64.30627926 -7.77157202 59.94236655 -7.77098083 55.57843018 C-7.77087916 49.97471009 -7.78453349 44.37111656 -7.80175304 38.76742649 C-7.81284803 34.47215689 -7.81490082 30.17691813 -7.81437111 25.88163567 C-7.81555493 23.81508892 -7.81999904 21.74854147 -7.82770348 19.68200874 C-7.8374532 16.79664258 -7.8346453 13.91155431 -7.82859802 11.02618408 C-7.83421753 10.165327 -7.83983704 9.30446991 -7.84562683 8.41752625 C-7.80893887 1.56167733 -6.97612772 0.0623727 0 0 Z M8.4143219 15.27789307 C8.4143219 25.50789307 8.4143219 35.73789307 8.4143219 46.27789307 C12.7249469 46.36039307 17.0355719 46.44289307 21.4768219 46.52789307 C22.82268372 46.56430908 24.16854553 46.6007251 25.55519104 46.63824463 C32.3635662 46.70128985 37.03988056 46.66093261 42.4143219 42.27789307 C45.99601627 37.80077511 45.98157503 33.78014513 45.82447815 28.22711182 C45.22961291 23.94974749 43.82488264 20.96886297 40.4143219 18.27789307 C33.97131959 14.53114716 27.77406717 14.92985272 20.4768219 15.09039307 C16.4961969 15.15226807 12.5155719 15.21414307 8.4143219 15.27789307 Z " fill="#666666" transform="translate(258.58567810058594,580.7221069335938)"/>
<path d="M0 0 C1.18802719 0.00222061 2.37605438 0.00444122 3.6000824 0.00672913 C4.58053528 0.00651009 4.58053528 0.00651009 5.58079529 0.00628662 C7.75058766 0.00698569 9.92029517 0.01477774 12.09007263 0.02259827 C13.59079949 0.02446247 15.09152696 0.02588636 16.59225464 0.02688599 C20.54934865 0.03071099 24.50640616 0.04054112 28.46348572 0.05158997 C32.49851488 0.06180446 36.53354991 0.06638369 40.56858826 0.07142639 C48.49113108 0.08216341 56.41364419 0.09923962 64.33616638 0.12025452 C64.91046835 13.98316572 64.91046835 13.98316572 61.22288513 18.85853577 C60.55756775 19.77207825 59.89225037 20.68562073 59.20677185 21.62684631 C58.48634705 22.55279602 57.76592224 23.47874573 57.02366638 24.43275452 C55.54017113 26.44546413 54.05709931 28.45848591 52.57444763 30.47181702 C51.84564392 31.43893616 51.11684021 32.4060553 50.36595154 33.40248108 C47.70434495 36.96622952 45.19853095 40.621465 42.71116638 44.30775452 C37.95887684 51.25661758 33.12716175 58.14946935 28.2809906 65.03309631 C27.7255658 65.82369446 27.17014099 66.6142926 26.59788513 67.42884827 C26.1127948 68.11777161 25.62770447 68.80669495 25.12791443 69.51649475 C22.48677826 73.35458131 19.92052815 77.24371186 17.33616638 81.12025452 C33.50616638 81.12025452 49.67616638 81.12025452 66.33616638 81.12025452 C66.33616638 85.41025452 66.33616638 89.70025452 66.33616638 94.12025452 C64.48819437 95.96822653 61.46820561 95.24801399 58.99632263 95.24964905 C58.00364883 95.25227753 58.00364883 95.25227753 56.99092102 95.25495911 C54.79347649 95.25937669 52.5961118 95.25643998 50.39866638 95.25306702 C48.87791427 95.25374008 47.35716226 95.25471013 45.83641052 95.25596619 C42.64523802 95.25744303 39.45409346 95.25528904 36.26292419 95.25062561 C32.16352108 95.24492832 28.06418343 95.2482074 23.96478271 95.25419807 C20.82334394 95.25780405 17.6819208 95.25666493 14.54048157 95.25407028 C13.02853894 95.25340111 11.51659492 95.25422908 10.00465393 95.25654984 C7.89506751 95.25907697 5.78558851 95.25523495 3.67601013 95.24964905 C2.47323425 95.24885345 1.27045837 95.24805786 0.03123474 95.24723816 C-2.66383362 95.12025452 -2.66383362 95.12025452 -3.66383362 94.12025452 C-4.86498642 88.13386394 -4.76603992 83.08097444 -1.73805237 77.69447327 C0.58451804 74.47077645 3.11414866 71.40875346 5.61643982 68.3238678 C8.80242847 64.24142407 11.63881665 59.91797589 14.52366638 55.62025452 C20.62972013 46.59869051 26.81985499 37.63910727 33.05760193 28.70814514 C34.00566711 27.34979553 34.00566711 27.34979553 34.97288513 25.96400452 C35.8037262 24.77581116 35.8037262 24.77581116 36.65135193 23.56361389 C38.57785136 20.76975701 40.45980844 17.94797277 42.33616638 15.12025452 C41.51597519 15.10812424 41.51597519 15.10812424 40.67921448 15.0957489 C35.00163524 15.00986683 29.32441178 14.91037126 23.64720154 14.8028717 C21.52681948 14.7645261 19.40637112 14.72968319 17.28587341 14.69837952 C14.2425004 14.65284986 11.19958606 14.59483612 8.15647888 14.53431702 C7.20435516 14.52276581 6.25223145 14.5112146 5.27125549 14.49931335 C4.39049347 14.47944366 3.50973145 14.45957397 2.60227966 14.43910217 C1.82506561 14.4257785 1.04785156 14.41245483 0.24708557 14.39872742 C-1.66383362 14.12025452 -1.66383362 14.12025452 -3.66383362 12.12025452 C-3.89430237 9.55384827 -3.89430237 9.55384827 -3.85133362 6.55775452 C-3.84488831 5.56646545 -3.83844299 4.57517639 -3.83180237 3.55384827 C-3.5962589 0.14120689 -3.44203803 0.15538531 0 0 Z " fill="#666666" transform="translate(254.66383361816406,350.87974548339844)"/>
<path d="M0 0 C5.99937255 5.48878765 8.01355251 12.98922319 8.41650391 20.95556641 C8.45055976 22.67067718 8.47010304 24.38612581 8.4765625 26.1015625 C8.49214203 27.02286957 8.50772156 27.94417664 8.52377319 28.8934021 C8.57080519 31.8039269 8.59888133 34.71421932 8.625 37.625 C8.66171347 40.54275488 8.70251212 43.46038462 8.74765015 46.37802124 C8.7744843 48.18330493 8.79599961 49.98867867 8.81118774 51.7940979 C8.8604017 55.76497369 9.03037103 59.61591787 9.57568359 63.55224609 C9.71570801 64.69000488 9.85573242 65.82776367 10 67 C9 68 9 68 5.62109375 68.09765625 C4.22652923 68.09098369 2.83198257 68.07902532 1.4375 68.0625 C0.37112305 68.05573242 0.37112305 68.05573242 -0.71679688 68.04882812 C-2.47790013 68.03700864 -4.23896036 68.01907263 -6 68 C-6.66 66.68 -7.32 65.36 -8 64 C-8.53109375 64.27714844 -9.0621875 64.55429687 -9.609375 64.83984375 C-10.66898437 65.38318359 -10.66898437 65.38318359 -11.75 65.9375 C-12.44609375 66.29714844 -13.1421875 66.65679688 -13.859375 67.02734375 C-20.66224933 70.11843081 -28.73379536 69.93611139 -35.8125 67.8125 C-42.07180405 65.39819701 -46.54068589 61.56940272 -49.3046875 55.4375 C-51.12848018 49.04397958 -51.14832845 41.72222823 -48.5 35.5625 C-44.60706192 29.08792929 -38.29671492 25.57430533 -31.203125 23.5234375 C-23.500999 21.69349976 -15.87584077 21.89194731 -8 22 C-9.50991654 15.89989131 -9.50991654 15.89989131 -13.125 10.9375 C-18.32544876 9.24170149 -23.11227465 9.65677721 -28.4375 10.625 C-31.29839713 11.81706971 -31.29839713 11.81706971 -32.3125 15.0625 C-32.539375 16.031875 -32.76625 17.00125 -33 18 C-34 19 -34 19 -37.125 19.1328125 C-38.40375 19.13023437 -39.6825 19.12765625 -41 19.125 C-42.27875 19.12757813 -43.5575 19.13015625 -44.875 19.1328125 C-48 19 -48 19 -49 18 C-48.61502425 10.42881033 -46.3508526 6.01694523 -40.75 0.8125 C-29.3526904 -8.51035282 -11.87083155 -8.16535703 0 0 Z M-32.671875 41.42578125 C-34.25480538 43.03353882 -34.25480538 43.03353882 -34.5 45.875 C-34.19180152 49.11313642 -34.19180152 49.11313642 -32.1875 51.875 C-27.524546 54.983636 -23.45007669 54.85889461 -18 54 C-14.10281072 52.55086464 -10.57964563 50.28733602 -8 47 C-7.63786432 44.48710325 -7.63786432 44.48710325 -7.8125 41.8125 C-7.83957031 40.91144531 -7.86664063 40.01039063 -7.89453125 39.08203125 C-7.92933594 38.39496094 -7.96414063 37.70789063 -8 37 C-21.11854045 36.10718932 -21.11854045 36.10718932 -32.671875 41.42578125 Z " fill="#666666" transform="translate(381,609)"/>
<path d="M0 0 C4.40303052 3.78865417 8.38143865 9.25482396 8.83226013 15.23168945 C8.841772 15.95573975 8.85128387 16.67979004 8.86108398 17.42578125 C8.87457382 18.25094238 8.88806366 19.07610352 8.90196228 19.92626953 C8.91240067 20.81685059 8.92283905 21.70743164 8.93359375 22.625 C8.96656391 24.52474364 8.99977496 26.42448311 9.03320312 28.32421875 C9.08035261 31.30807298 9.12472695 34.29191436 9.16430664 37.27587891 C9.19756209 51.49590487 9.19756209 51.49590487 11.46508789 65.484375 C11.53848389 66.08765625 11.61187988 66.6909375 11.6875 67.3125 C8.82813144 70.17186856 6.73158788 69.64641034 2.75 69.6875 C0.88021484 69.73003906 0.88021484 69.73003906 -1.02734375 69.7734375 C-4.3125 69.3125 -4.3125 69.3125 -6.25390625 67.2890625 C-6.60324219 66.63679688 -6.95257813 65.98453125 -7.3125 65.3125 C-7.83199219 65.58964844 -8.35148437 65.86679688 -8.88671875 66.15234375 C-17.04647658 70.39059135 -24.37207705 71.51348313 -33.375 69.1875 C-39.32737975 67.20337342 -43.53672668 64.50573036 -46.62890625 58.9453125 C-49.94615649 51.33990952 -50.11787729 45.17256881 -47.2890625 37.38671875 C-44.46714496 31.39296589 -38.34764025 27.53947159 -32.375 25.125 C-26.3690244 23.5315779 -20.57135935 23.19516496 -14.375 23.25 C-13.34922852 23.25676758 -13.34922852 23.25676758 -12.30273438 23.26367188 C-10.63928396 23.2753044 -8.9758795 23.29323306 -7.3125 23.3125 C-8.08141032 17.23192594 -8.08141032 17.23192594 -11.3125 12.25 C-17.1085803 10.43872491 -22.25810718 10.30397989 -27.75 13 C-30.42459686 15.11700987 -30.42459686 15.11700987 -31.55859375 17.93359375 C-33.3125 20.3125 -33.3125 20.3125 -36.4140625 20.8359375 C-37.57679688 20.78695312 -38.73953125 20.73796875 -39.9375 20.6875 C-41.10539062 20.65398437 -42.27328125 20.62046875 -43.4765625 20.5859375 C-46.3125 20.3125 -46.3125 20.3125 -47.3125 19.3125 C-47.97893995 13.86990705 -46.95165323 10.6125784 -43.9140625 6.234375 C-32.83839723 -7.05642332 -14.55283486 -7.41370832 0 0 Z M-32.375 43.625 C-33.56117864 46.34209643 -33.56117864 46.34209643 -32.8125 49.4375 C-30.98515806 52.93990539 -30.00009232 53.9002306 -26.3125 55.3125 C-19.26548891 56.24863431 -14.83279285 54.62848214 -8.9375 50.75 C-6.35725888 46.87963833 -7.00210612 42.83045539 -7.3125 38.3125 C-9.8340021 38.23077064 -12.35279917 38.17166627 -14.875 38.125 C-15.57947266 38.09986328 -16.28394531 38.07472656 -17.00976562 38.04882812 C-23.05795579 37.96521259 -28.16596099 38.90577445 -32.375 43.625 Z " fill="#666666" transform="translate(500.3125,151.6875)"/>
<path d="M0 0 C8.23372578 8.56307481 9.26387641 20.62787602 9.41796875 31.890625 C9.1875 34.5 9.1875 34.5 7.1875 36.5 C5.27658081 36.74050903 5.27658081 36.74050903 2.92138672 36.72705078 C2.04062469 36.72689972 1.15986267 36.72674866 0.25241089 36.72659302 C-0.69971283 36.71627045 -1.65183655 36.70594788 -2.6328125 36.6953125 C-4.09350662 36.69106766 -4.09350662 36.69106766 -5.58370972 36.68673706 C-8.70176349 36.67551913 -11.81953268 36.6504117 -14.9375 36.625 C-17.04817294 36.61497228 -19.15885038 36.60584607 -21.26953125 36.59765625 C-26.45061835 36.57557458 -31.63153885 36.54208129 -36.8125 36.5 C-36.04226385 38.11668673 -35.26321804 39.72917828 -34.48046875 41.33984375 C-34.04758545 42.23823975 -33.61470215 43.13663574 -33.16870117 44.06225586 C-31.12143636 47.7421729 -28.5105394 49.6509803 -24.8125 51.5 C-17.77772391 52.25759127 -12.34349431 52.13118664 -6.53125 47.88671875 C-5.9640625 47.42910156 -5.396875 46.97148438 -4.8125 46.5 C-3.4925 45.51 -2.1725 44.52 -0.8125 43.5 C2.1575 45.81 5.1275 48.12 8.1875 50.5 C6.97072189 56.58389057 4.95731997 58.76748289 0.1875 62.5 C-9.38654439 67.94054058 -20.30919727 69.16031382 -31 66.4375 C-39.65632061 63.43627167 -45.10833183 57.94197791 -49.62109375 50.125 C-54.42350526 39.54394906 -54.57710182 25.88519928 -51.1875 14.8125 C-47.43197604 5.3974277 -41.26451814 -1.27399093 -32.1875 -5.8125 C-20.8262975 -9.10126915 -9.25498924 -7.65930144 0 0 Z M-32.5625 13.375 C-35.18319847 16.56034626 -35.18319847 16.56034626 -35.8125 21.5 C-26.5725 21.5 -17.3325 21.5 -7.8125 21.5 C-8.68119872 14.38814311 -8.68119872 14.38814311 -12.8125 9.5 C-19.83624321 4.2321926 -27.32804725 7.90261758 -32.5625 13.375 Z " fill="#666666" transform="translate(664.8125,610.5)"/>
<path d="M0 0 C8.08746557 5.09892751 12.18139597 12.7186013 14.3125 21.875 C15.24955098 27.49730589 15.61054273 33.32554406 15 39 C12.61556332 41.38443668 12.07540218 41.26183505 8.82568359 41.31884766 C7.96494232 41.33871735 7.10420105 41.35858704 6.21737671 41.37905884 C4.8220018 41.39638565 4.8220018 41.39638565 3.3984375 41.4140625 C2.44683746 41.43342865 1.49523743 41.4527948 0.51480103 41.4727478 C-2.53170747 41.53264132 -5.57825354 41.57896795 -8.625 41.625 C-10.6875167 41.66317079 -12.7500173 41.70222198 -14.8125 41.7421875 C-19.87486966 41.83835086 -24.93731395 41.92234563 -30 42 C-29.57328534 43.27579362 -29.13312343 44.54709363 -28.6875 45.81640625 C-28.32205078 46.87903687 -28.32205078 46.87903687 -27.94921875 47.96313477 C-26.357458 51.37878803 -24.08163803 52.88137385 -21 55 C-15.17378245 56.94207252 -9.15605141 56.89139928 -3.5625 54.25 C-0.65001944 52.60253625 1.30996028 50.95756951 3 48 C7.67105792 49.55701931 11.08705685 52.08447373 15 55 C12.93746582 61.08183155 9.25149166 64.44205869 4 68 C-3.07207179 71.13054719 -10.27585906 72.91715217 -18 72 C-18.72574219 71.9175 -19.45148437 71.835 -20.19921875 71.75 C-28.22117371 70.40600755 -35.3938061 66.49196128 -40.4375 60.0625 C-47.9086916 49.00344803 -48.469666 35.83928932 -46.5390625 22.9140625 C-44.18480931 14.13408295 -38.75078674 5.8850744 -31 1 C-20.79274011 -4.04081604 -10.47185375 -4.79888552 0 0 Z M-26 16 C-28.97999867 20.68015986 -28.97999867 20.68015986 -30 26 C-20.43 26 -10.86 26 -1 26 C-3.13847033 18.02706363 -3.13847033 18.02706363 -8 13 C-14.69448381 10.7685054 -20.6774421 11.04878335 -26 16 Z " fill="#666666" transform="translate(822,150)"/>
<path d="M0 0 C5.32342768 4.93655067 9.3677137 13.83333947 9.81689453 21.09057617 C9.81858643 22.1807605 9.81858643 22.1807605 9.8203125 23.29296875 C9.82224609 24.4850293 9.82224609 24.4850293 9.82421875 25.70117188 C9.82035156 26.52166016 9.81648437 27.34214844 9.8125 28.1875 C9.81830078 29.43563477 9.81830078 29.43563477 9.82421875 30.70898438 C9.81417092 36.87332908 9.81417092 36.87332908 8.6875 38 C7.30589885 38.0927833 5.91961962 38.11747043 4.53491211 38.11352539 C3.65407455 38.11344986 2.773237 38.11337433 1.8657074 38.11329651 C0.90842239 38.10813522 -0.04886261 38.10297394 -1.03515625 38.09765625 C-2.01036728 38.0962413 -2.98557831 38.09482635 -3.99034119 38.09336853 C-7.11859143 38.08775133 -10.24677123 38.07519593 -13.375 38.0625 C-15.49023334 38.05748722 -17.60546781 38.05292393 -19.72070312 38.04882812 C-24.91799296 38.03777631 -30.11524145 38.02102146 -35.3125 38 C-34.72056665 39.4414918 -34.11664677 40.87806474 -33.5078125 42.3125 C-33.00531982 43.51326172 -33.00531982 43.51326172 -32.49267578 44.73828125 C-30.42610643 48.69870708 -27.29739418 51.00755291 -23.3125 53 C-17.0550518 53.53167861 -11.64042396 53.67880464 -6.3125 50 C-3.49893108 47.43802877 -3.49893108 47.43802877 -1.3125 45 C3.28056496 46.4859916 6.12319245 48.85014682 9.6875 52 C9.19367352 56.2798295 6.86402803 59.27247487 3.6875 62 C-6.8604103 68.36715594 -16.81464394 70.71469603 -28.875 67.875 C-37.41056287 65.3119469 -44.01734562 59.84277452 -48.3125 52 C-51.18067568 45.39232579 -51.82805967 39.27799212 -51.75 32.125 C-51.74242676 31.15481934 -51.73485352 30.18463867 -51.72705078 29.18505859 C-51.56570399 22.18119456 -50.84740766 16.17504181 -47.3125 10 C-46.9 9.26910156 -46.4875 8.53820312 -46.0625 7.78515625 C-41.64770742 1.05008916 -35.17142446 -2.48399396 -27.8125 -5.375 C-17.42502275 -7.22990665 -9.05969966 -5.47000734 0 0 Z M-30.3125 13 C-32.6530458 16.20822477 -34.3125 18.92519882 -34.3125 23 C-25.0725 23 -15.8325 23 -6.3125 23 C-7.2520481 17.36271138 -7.89858852 15.29177443 -11.3125 11 C-17.73551078 7.04116317 -24.81497863 8.01387597 -30.3125 13 Z " fill="#666666" transform="translate(620.3125,153)"/>
<path d="M0 0 C12.75188295 1.32396599 23.19632969 5.67701121 33 14 C33.71800781 14.60585938 34.43601563 15.21171875 35.17578125 15.8359375 C45.48353679 25.32307561 51.66834125 38.29904526 54 52 C54.07905625 54.05733273 54.10779825 56.11695513 54.09765625 58.17578125 C54.09515869 59.21903564 54.09266113 60.26229004 54.09008789 61.3371582 C54.08098389 62.649021 54.07187988 63.96088379 54.0625 65.3125 C54.041875 69.499375 54.02125 73.68625 54 78 C37.17 78 20.34 78 3 78 C4.65 76.35 6.3 74.7 8 73 C13.71826213 66.43458793 13.36536058 58.89562392 13.375 50.625 C13.39949219 49.52671875 13.42398438 48.4284375 13.44921875 47.296875 C13.47547049 39.99889213 12.80229656 33.88804383 7.5168457 28.48339844 C5.14701211 26.44509976 2.59886262 24.73257508 0 23 C-0.34057617 20.66162109 -0.34057617 20.66162109 -0.29296875 17.7734375 C-0.28330078 16.7421875 -0.27363281 15.7109375 -0.26367188 14.6484375 C-0.23853516 13.56820312 -0.21339844 12.48796875 -0.1875 11.375 C-0.17396484 10.28703125 -0.16042969 9.1990625 -0.14648438 8.078125 C-0.11104754 5.38492591 -0.06164331 2.69270626 0 0 Z " fill="#666666" transform="translate(130,547)"/>
<path d="M0 0 C0 7.92 0 15.84 0 24 C-1.98 24.99 -3.96 25.98 -6 27 C-9.76896313 30.43772409 -11.85730271 33.90860843 -12.20874023 39.05932617 C-12.2976479 42.38369038 -12.36745356 45.70623115 -12.4050293 49.03149414 C-12.42654533 50.46012643 -12.46057351 51.88862916 -12.50756836 53.31665039 C-12.92258927 64.27611648 -12.92258927 64.27611648 -7.59008789 73.51293945 C-7.06535889 74.00366943 -6.54062988 74.49439941 -6 75 C-5.01 75.99 -4.02 76.98 -3 78 C-19.5 78 -36 78 -53 78 C-53.0825 73.483125 -53.165 68.96625 -53.25 64.3125 C-53.28641602 62.91684814 -53.32283203 61.52119629 -53.36035156 60.08325195 C-53.51285798 42.60281879 -47.0958509 28.13298728 -34.921875 15.73046875 C-25.72795311 7.13882249 -12.79152682 0 0 0 Z " fill="#666666" transform="translate(117,91)"/>
<path d="M0 0 C6.46341845 5.6833507 10.32058493 13.80274918 11.34082031 22.30883789 C11.47560891 24.93646676 11.50682138 27.53712758 11.4765625 30.16796875 C11.46898926 31.0911792 11.46141602 32.01438965 11.45361328 32.96557617 C11.20443084 43.27936476 8.59068555 52.40305069 1.0390625 59.79296875 C-6.29336026 65.40158513 -14.35560854 68.41804993 -23.6640625 68.1015625 C-32.87846847 66.86357258 -40.90927134 64.03771874 -46.9609375 56.79296875 C-53.67518603 47.62916498 -56.09145025 35.98818527 -54.9609375 24.79296875 C-53.31006512 14.21362824 -49.3644559 4.70143015 -40.75390625 -2.02734375 C-28.04808885 -10.38716261 -12.0523005 -8.62399594 0 0 Z M-33.9609375 12.79296875 C-38.98182648 20.29368704 -39.88655165 29.85344463 -38.3359375 38.60546875 C-36.78613699 44.29840262 -34.02545007 48.33842581 -29.2109375 51.73046875 C-24.99017725 53.11033268 -21.35629939 53.50317085 -16.9609375 52.79296875 C-11.68928258 50.1074087 -8.0960496 46.60837225 -5.87109375 41.08984375 C-3.54228534 32.65416008 -3.61618006 22.50140937 -7.9609375 14.79296875 C-12.08968749 10.45395835 -15.56386981 7.66023331 -21.6484375 7.41796875 C-27.05073065 7.50371943 -30.36118563 8.71452647 -33.9609375 12.79296875 Z " fill="#666666" transform="translate(382.9609375,154.20703125)"/>
<path d="M0 0 C0.69351563 0.46277344 1.38703125 0.92554688 2.1015625 1.40234375 C8.93866069 6.63899761 13.22470016 14.6073188 15 23 C16.13396256 36.55280766 15.67459476 49.25861074 6.765625 60.21484375 C-0.31431005 67.37309666 -7.87159639 70.03146985 -17.8125 70.375 C-27.37285193 70.20265007 -34.31526084 67.51551234 -41.25 60.90234375 C-49.43104206 52.00911276 -51.62119109 41.03367218 -51.28125 29.1640625 C-50.42065189 19.48233372 -47.17560004 10.07916028 -40.11328125 3.1484375 C-29.379021 -5.41366399 -11.84898365 -8.10083576 0 0 Z M-29.6875 15.5625 C-33.82344577 20.93922951 -35.60748378 28.20502199 -35.28125 34.93359375 C-34.37570371 41.58684359 -32.5796155 47.70156035 -27.8671875 52.6484375 C-24.24877078 55.26762617 -20.40957675 55.96500336 -16 56 C-10.73543775 54.53282691 -7.40684219 52.25855274 -4 48 C-0.11233243 40.76089488 -0.09024484 33.06876303 -1 25 C-2.84985761 19.05457286 -5.56138794 14.29179151 -11 11 C-18.52719426 8.49093525 -24.06007705 10.19681765 -29.6875 15.5625 Z " fill="#666666" transform="translate(457,377)"/>
<path d="M0 0 C0.69351563 0.46277344 1.38703125 0.92554688 2.1015625 1.40234375 C8.93866069 6.63899761 13.22470016 14.6073188 15 23 C16.13396256 36.55280766 15.67459476 49.25861074 6.765625 60.21484375 C-0.31431005 67.37309666 -7.87159639 70.03146985 -17.8125 70.375 C-27.37285193 70.20265007 -34.31526084 67.51551234 -41.25 60.90234375 C-49.16649069 52.29669427 -51.64264106 41.5422104 -51.28125 30.0078125 C-50.34434165 19.98809819 -47.46573067 10.35256855 -40.11328125 3.15234375 C-29.38983507 -5.42219966 -11.84321388 -8.09689112 0 0 Z M-29.75 15.875 C-34.83237796 22.93385828 -35.80680385 31.2811845 -34.6015625 39.82421875 C-33.12921385 45.47976975 -30.82428721 50.50062186 -26 54 C-21.2928863 55.97115314 -16.70114389 56.56281775 -11.75 55.1875 C-6.87874474 52.99395301 -4.32536661 48.64268697 -2 44 C0.5912559 36.51238327 0.18694181 26.41046382 -3.1875 19.3125 C-5.9344114 14.62796554 -8.78058523 11.73980492 -14 10 C-20.95605724 9.47501455 -24.91024951 10.81526085 -29.75 15.875 Z " fill="#666666" transform="translate(849,377)"/>
<path d="M0 0 C8.60379902 5.08177603 13.22447361 12.54999233 15.87890625 22.05859375 C18.36048471 33.60975061 17.79683141 45.94924191 11.87890625 56.43359375 C7.36634472 62.90520145 1.33657952 68.70962078 -6.421875 70.78125 C-17.01071586 72.43625851 -26.79087802 71.63469227 -36.01953125 65.93359375 C-43.2609447 60.36814062 -47.46070962 52.06397729 -48.99609375 43.18359375 C-50.30738325 29.74616557 -49.30887307 17.60153441 -40.48828125 6.828125 C-38.45144616 4.58334078 -36.54584665 2.84389797 -33.99609375 1.18359375 C-33.43019531 0.81234375 -32.86429687 0.44109375 -32.28125 0.05859375 C-22.98370862 -5.08093008 -9.41718189 -4.60501788 0 0 Z M-26.99609375 15.18359375 C-33.44899261 23.29961088 -33.62096232 31.03800039 -32.99609375 41.18359375 C-31.90045197 46.74807366 -29.44891207 50.64157918 -24.99609375 54.18359375 C-20.78230674 56.74491526 -17.74602924 57.46614875 -12.93359375 56.80859375 C-8.44363871 55.67586953 -5.9103121 54.02928283 -3.1796875 50.30078125 C0.89914642 43.00464929 2.18911416 35.04049618 0.53515625 26.8671875 C-1.29957155 20.4128772 -4.5759146 15.20062248 -10.43359375 11.74609375 C-16.80748918 10.34694597 -21.93024203 10.84143514 -26.99609375 15.18359375 Z " fill="#666666" transform="translate(378.99609375,375.81640625)"/>
<path d="M0 0 C6.26396289 3.97361522 8.71721508 8.58931199 10.69934082 15.50485229 C11.77809325 20.55440371 11.69928358 25.54765602 11.640625 30.69140625 C11.63875183 31.82907944 11.63687866 32.96675262 11.63494873 34.13890076 C11.62826829 36.52305062 11.61443467 38.90719027 11.59375 41.29125977 C11.56232476 44.9579475 11.55274698 48.62420597 11.546875 52.29101562 C11.53771493 54.61198447 11.52734235 56.93294891 11.515625 59.25390625 C11.51137512 60.35481094 11.50712524 61.45571564 11.50274658 62.58998108 C11.49313904 63.59870773 11.48353149 64.60743439 11.47363281 65.64672852 C11.46680481 66.53812027 11.45997681 67.42951202 11.45294189 68.34791565 C11.3125 70.375 11.3125 70.375 10.3125 71.375 C7.98089945 71.47409302 5.64620058 71.50470504 3.3125 71.5 C2.03375 71.50257813 0.755 71.50515625 -0.5625 71.5078125 C-3.6875 71.375 -3.6875 71.375 -4.6875 70.375 C-4.79960641 68.86731235 -4.84422979 67.35452931 -4.86108398 65.84277344 C-4.87457382 64.87797058 -4.88806366 63.91316772 -4.90196228 62.91912842 C-4.91240067 61.86815979 -4.92283905 60.81719116 -4.93359375 59.734375 C-4.96654059 57.52733991 -4.9997521 55.32030876 -5.03320312 53.11328125 C-5.08058678 49.61965737 -5.1249882 46.12604851 -5.16430664 42.63232422 C-5.20405268 39.27033307 -5.25560336 35.90867982 -5.30859375 32.546875 C-5.3170079 31.5040033 -5.32542206 30.46113159 -5.33409119 29.38665771 C-5.35905418 27.92054047 -5.35905418 27.92054047 -5.38452148 26.42480469 C-5.39482895 25.56844421 -5.40513641 24.71208374 -5.41575623 23.82977295 C-5.85650615 19.84829818 -6.76644334 17.13816123 -9.875 14.5625 C-13.9424468 12.84513357 -17.402513 12.45818423 -21.5859375 14.13671875 C-25.14558637 16.03670011 -27.5973761 17.94984194 -29.6875 21.375 C-30.14759233 23.7426615 -30.14759233 23.7426615 -30.10400391 26.3112793 C-30.12057037 27.28876633 -30.13713684 28.26625336 -30.15420532 29.27336121 C-30.15745819 30.3213942 -30.16071106 31.36942719 -30.1640625 32.44921875 C-30.18743179 34.06858086 -30.18743179 34.06858086 -30.21127319 35.72065735 C-30.25880847 39.16793106 -30.28656993 42.61500173 -30.3125 46.0625 C-30.34893857 49.52056788 -30.38949031 52.97851932 -30.43515015 56.43647766 C-30.46246777 58.58874208 -30.4837791 60.74109225 -30.49868774 62.89347839 C-30.51408096 64.34552422 -30.51408096 64.34552422 -30.52978516 65.8269043 C-30.53628082 66.6830986 -30.54277649 67.53929291 -30.54946899 68.4214325 C-30.6875 70.375 -30.6875 70.375 -31.6875 71.375 C-34.01910055 71.47409302 -36.35379942 71.50470504 -38.6875 71.5 C-39.96625 71.50257813 -41.245 71.50515625 -42.5625 71.5078125 C-45.6875 71.375 -45.6875 71.375 -46.6875 70.375 C-46.78706278 68.2023732 -46.81549719 66.02646894 -46.81689453 63.8515625 C-46.81864685 63.17027283 -46.82039917 62.48898315 -46.82220459 61.78704834 C-46.82662242 59.52467333 -46.82368538 57.26237587 -46.8203125 55 C-46.82098556 53.4344074 -46.8219556 51.8688149 -46.82321167 50.30322266 C-46.82468855 47.01789355 -46.82253441 43.73259158 -46.81787109 40.44726562 C-46.8121738 36.22679484 -46.81545286 32.00638764 -46.82144356 27.78591919 C-46.82504944 24.55183428 -46.82391046 21.31776455 -46.82131577 18.0836792 C-46.82064657 16.52707919 -46.82147466 14.97047782 -46.82379532 13.41387939 C-46.8263223 11.24202804 -46.82248065 9.07028104 -46.81689453 6.8984375 C-46.81609894 5.66013184 -46.81530334 4.42182617 -46.81448364 3.14599609 C-46.6875 0.375 -46.6875 0.375 -45.6875 -0.625 C-43.15700598 -0.69813567 -40.65445163 -0.71747527 -38.125 -0.6875 C-37.41408203 -0.68298828 -36.70316406 -0.67847656 -35.97070312 -0.67382812 C-34.20959987 -0.66200864 -32.44853964 -0.64407263 -30.6875 -0.625 C-30.6875 0.695 -30.6875 2.015 -30.6875 3.375 C-30.15125 3.0140625 -29.615 2.653125 -29.0625 2.28125 C-20.64281433 -2.7040902 -9.17781105 -4.12740269 0 0 Z " fill="#666666" transform="translate(717.6875,374.625)"/>
<path d="M0 0 C4.97405733 5.90805063 7.12305248 10.79323273 7.12939453 18.48706055 C7.13254669 19.58467209 7.13569885 20.68228363 7.13894653 21.81315613 C7.1369223 22.99243179 7.13489807 24.17170746 7.1328125 25.38671875 C7.13376923 26.59946976 7.13472595 27.81222076 7.13571167 29.0617218 C7.13639191 31.62293551 7.13454846 34.18415094 7.13037109 36.74536133 C7.12500682 40.68249338 7.1303285 44.61951206 7.13671875 48.55664062 C7.13605821 51.04166692 7.13477756 53.52669314 7.1328125 56.01171875 C7.13483673 57.19706711 7.13686096 58.38241547 7.13894653 59.60368347 C7.13421829 61.23591606 7.13421829 61.23591606 7.12939453 62.90112305 C7.12859894 63.86390671 7.12780334 64.82669037 7.12698364 65.81864929 C7 68 7 68 6 69 C3.85692104 69.12537741 1.70921114 69.17574364 -0.4375 69.1875 C-2.19900391 69.20876953 -2.19900391 69.20876953 -3.99609375 69.23046875 C-7 69 -7 69 -9 67 C-9.25828552 64.85025024 -9.25828552 64.85025024 -9.27124023 62.15478516 C-9.28142685 61.14678864 -9.29161346 60.13879211 -9.30210876 59.10025024 C-9.30424881 58.00755829 -9.30638885 56.91486633 -9.30859375 55.7890625 C-9.3337538 53.4895808 -9.35915182 51.19010169 -9.38476562 48.890625 C-9.41352828 45.25423858 -9.43753665 41.61789723 -9.45629883 37.98144531 C-9.47791823 34.47957797 -9.51735808 30.97824565 -9.55859375 27.4765625 C-9.55870956 26.38791901 -9.55882538 25.29927551 -9.5589447 24.17764282 C-9.57895287 22.65619156 -9.57895287 22.65619156 -9.59936523 21.10400391 C-9.60443588 20.21290924 -9.60950653 19.32181458 -9.61473083 18.40371704 C-10.08213482 15.487556 -10.97347706 14.12530921 -13 12 C-17.38469035 10.53843655 -21.66478468 10.08226947 -26.0078125 11.7890625 C-29.18355813 13.52974316 -30.97672267 14.965084 -33 18 C-33.3135047 20.267136 -33.3135047 20.267136 -33.28710938 22.80688477 C-33.30052368 23.78121964 -33.31393799 24.7555545 -33.32775879 25.75941467 C-33.33303589 26.80947189 -33.33831299 27.85952911 -33.34375 28.94140625 C-33.3583728 30.02002426 -33.37299561 31.09864227 -33.38806152 32.20994568 C-33.45044631 36.83279638 -33.49001087 41.45578156 -33.53173828 46.07885742 C-33.56537952 49.44985216 -33.6105109 52.82055756 -33.65625 56.19140625 C-33.6615271 57.2434877 -33.6668042 58.29556915 -33.67224121 59.37953186 C-33.68565552 60.35071457 -33.69906982 61.32189728 -33.71289062 62.32250977 C-33.72018188 63.17949966 -33.72747314 64.03648956 -33.73498535 64.91944885 C-34 67 -34 67 -36 69 C-39.00390625 69.23046875 -39.00390625 69.23046875 -42.5625 69.1875 C-43.73941406 69.18105469 -44.91632813 69.17460938 -46.12890625 69.16796875 C-49 69 -49 69 -50 68 C-50.09960152 65.79675026 -50.12799757 63.5902651 -50.12939453 61.38476562 C-50.13114685 60.69372238 -50.13289917 60.00267914 -50.13470459 59.29069519 C-50.13912254 56.99585493 -50.13618533 54.70109111 -50.1328125 52.40625 C-50.13348556 50.81823715 -50.13445559 49.23022441 -50.13571167 47.64221191 C-50.13718857 44.3098045 -50.13503436 40.97742384 -50.13037109 37.64501953 C-50.1246738 33.3640149 -50.12795285 29.08307295 -50.13394356 24.80207062 C-50.1375494 21.52166264 -50.13641048 18.24126963 -50.13381577 14.96086121 C-50.13314656 13.3819325 -50.1339747 11.80300246 -50.13629532 10.22407532 C-50.13882223 8.02109147 -50.13498075 5.81821051 -50.12939453 3.61523438 C-50.12859894 2.35916382 -50.12780334 1.10309326 -50.12698364 -0.19104004 C-50 -3 -50 -3 -49 -4 C-46.64686445 -4.07271741 -44.29166332 -4.08370868 -41.9375 -4.0625 C-40.64714844 -4.05347656 -39.35679687 -4.04445313 -38.02734375 -4.03515625 C-37.02832031 -4.02355469 -36.02929688 -4.01195312 -35 -4 C-34.67 -2.35 -34.34 -0.7 -34 1 C-33.195625 0.38125 -32.39125 -0.2375 -31.5625 -0.875 C-22.59198804 -6.76451837 -8.51707497 -6.84341395 0 0 Z " fill="#666666" transform="translate(456,608)"/>
<path d="M0 0 C1.27875 0.00257813 2.5575 0.00515625 3.875 0.0078125 C5.15375 0.00523437 6.4325 0.00265625 7.75 0 C10.875 0.1328125 10.875 0.1328125 11.875 1.1328125 C11.98199488 2.671334 12.02121285 4.2146414 12.03271484 5.75683594 C12.04297699 6.74165955 12.05323914 7.72648315 12.06381226 8.7411499 C12.07111359 9.81399231 12.07841492 10.88683472 12.0859375 11.9921875 C12.11401187 14.24479886 12.14267637 16.49740293 12.171875 18.75 C12.21312405 22.31607823 12.24999415 25.88202118 12.27636719 29.44824219 C12.30397233 32.87984698 12.3498541 36.31082419 12.3984375 39.7421875 C12.40169037 40.80693298 12.40494324 41.87167847 12.40829468 42.96868896 C12.44516022 50.06896362 12.44516022 50.06896362 15.875 56.1328125 C19.2677015 58.49742264 21.95860412 58.15375595 25.875 57.5078125 C30.2235786 56.6788647 32.89328263 55.46146117 35.875 52.1328125 C36.64622815 48.3073764 36.57207371 44.51255382 36.546875 40.62109375 C36.56599945 38.93514351 36.56599945 38.93514351 36.58551025 37.21513367 C36.62186572 33.62493741 36.62451984 30.0356769 36.625 26.4453125 C36.64657416 22.84458534 36.67497501 19.24400179 36.70733643 15.64335632 C36.7251749 13.40204125 36.73539061 11.16065082 36.73748779 8.91926575 C36.74129456 7.9111937 36.74510132 6.90312164 36.74902344 5.86450195 C36.74948669 4.97277786 36.74994995 4.08105377 36.75042725 3.16230774 C36.875 1.1328125 36.875 1.1328125 37.875 0.1328125 C40.40549402 0.05967683 42.90804837 0.04033723 45.4375 0.0703125 C46.50387695 0.07708008 46.50387695 0.07708008 47.59179688 0.08398438 C49.35290013 0.09580386 51.11396036 0.11373987 52.875 0.1328125 C52.89812524 9.37278802 52.91591601 18.61275364 52.92681217 27.85275173 C52.93204061 32.14281165 52.93913753 36.43285183 52.95043945 40.72290039 C52.96126975 44.8596065 52.96727714 48.99629358 52.96987724 53.13301277 C52.97173124 54.71473554 52.97535136 56.29645721 52.98073006 57.87817192 C52.9879424 60.08604088 52.98899086 62.29383023 52.98852539 64.50170898 C52.990746 65.76079575 52.99296661 67.01988251 52.99525452 68.31712341 C52.875 71.1328125 52.875 71.1328125 51.875 72.1328125 C49.52186445 72.20552991 47.16666332 72.21652118 44.8125 72.1953125 C42.87697266 72.18177734 42.87697266 72.18177734 40.90234375 72.16796875 C39.90332031 72.15636719 38.90429688 72.14476562 37.875 72.1328125 C37.545 71.1428125 37.215 70.1528125 36.875 69.1328125 C35.9675 69.6071875 35.06 70.0815625 34.125 70.5703125 C26.74523121 74.11827826 18.12479566 74.32216015 10.16796875 72.51953125 C3.49093283 69.9374407 -0.30376374 65.19515086 -3.18505859 58.76831055 C-4.5637038 53.43599735 -4.38982854 48.25464911 -4.35546875 42.76953125 C-4.35501053 41.58180618 -4.35455231 40.39408112 -4.3540802 39.17036438 C-4.35106599 36.66817217 -4.34320467 34.16598169 -4.33081055 31.66381836 C-4.3124834 27.81682767 -4.31030145 23.97007679 -4.31054688 20.12304688 C-4.30563414 17.69270624 -4.2998069 15.26236723 -4.29296875 12.83203125 C-4.29185593 11.67483078 -4.2907431 10.51763031 -4.28959656 9.32536316 C-4.28002678 7.73284477 -4.28002678 7.73284477 -4.27026367 6.1081543 C-4.26645187 5.16916794 -4.26264008 4.23018158 -4.25871277 3.26274109 C-4.04315386 -0.17092567 -3.52631326 0.14986831 0 0 Z " fill="#666666" transform="translate(882.125,373.8671875)"/>
<path d="M0 0 C1.93166016 0.01740234 1.93166016 0.01740234 3.90234375 0.03515625 C5.19269531 0.04417969 6.48304688 0.05320312 7.8125 0.0625 C8.81152344 0.07410156 9.81054688 0.08570313 10.83984375 0.09765625 C18.33984375 22.59765625 18.33984375 22.59765625 25.83984375 45.09765625 C27.97403031 39.51721512 29.92884812 33.90973511 31.7578125 28.22265625 C32.0199202 27.41272217 32.28202789 26.60278809 32.55207825 25.76831055 C33.37890945 23.2119851 34.20316955 20.65483941 35.02734375 18.09765625 C35.59162624 16.35150735 36.15607778 14.60541307 36.72070312 12.859375 C38.09570381 8.60609727 39.46840122 4.35208255 40.83984375 0.09765625 C43.13125661 0.04381104 45.42302563 0.00493538 47.71484375 -0.02734375 C49.62910156 -0.06214844 49.62910156 -0.06214844 51.58203125 -0.09765625 C54.83984375 0.09765625 54.83984375 0.09765625 56.83984375 2.09765625 C56.40899171 8.60635637 53.56025768 15.1440882 51.35546875 21.22265625 C51.01739197 22.16842529 50.67931519 23.11419434 50.33099365 24.08862305 C49.25565213 27.09347019 48.17296327 30.09560513 47.08984375 33.09765625 C46.37840216 35.08054838 45.6674607 37.06362002 44.95703125 39.046875 C43.57435659 42.90570271 42.18927708 46.76365443 40.80273438 50.62109375 C38.11705354 58.10220913 35.47461852 65.59848832 32.83984375 73.09765625 C28.54984375 73.09765625 24.25984375 73.09765625 19.83984375 73.09765625 C17.0980774 65.87767152 14.39163739 58.64480228 11.69934082 51.40625 C10.74362501 48.83921444 9.78528665 46.27316359 8.82714844 43.70703125 C6.98234442 38.76115333 5.1509754 33.8104352 3.32641602 28.85705566 C2.58496426 26.84969675 1.83967742 24.84375026 1.09057617 22.8392334 C0.02535124 19.98634766 -1.02593482 17.12867783 -2.07421875 14.26953125 C-2.40084503 13.40376465 -2.72747131 12.53799805 -3.06399536 11.64599609 C-3.35563568 10.84210449 -3.647276 10.03821289 -3.94775391 9.20996094 C-4.33672348 8.15938507 -4.33672348 8.15938507 -4.73355103 7.08758545 C-5.23570259 4.7452652 -4.95279116 3.33977275 -4.16015625 1.09765625 C-3.16015625 0.09765625 -3.16015625 0.09765625 0 0 Z " fill="#666666" transform="translate(513.16015625,603.90234375)"/>
<path d="M0 0 C4.62 0 9.24 0 14 0 C14.41362793 1.22630127 14.82725586 2.45260254 15.25341797 3.71606445 C16.78837277 8.26298206 18.32909908 12.80792619 19.87158203 17.35229492 C20.53852553 19.31985938 21.20390005 21.2879564 21.86767578 23.2565918 C22.82172815 26.08523584 23.78139602 28.91192025 24.7421875 31.73828125 C25.03809784 32.61962234 25.33400818 33.50096344 25.6388855 34.40901184 C25.91902496 35.22963608 26.19916443 36.05026031 26.48779297 36.89575195 C26.73206024 37.61745071 26.97632751 38.33914948 27.22799683 39.0827179 C28.0333709 41.27080969 28.0333709 41.27080969 30 44 C34.62 29.48 39.24 14.96 44 0 C48.95 0 53.9 0 59 0 C60.0501251 5.25062548 59.76219457 6.64265173 58.03393555 11.48681641 C57.81296204 12.11670975 57.59198853 12.74660309 57.36431885 13.39558411 C56.63361648 15.46865633 55.8855149 17.53496407 55.13671875 19.6015625 C54.62345999 21.04420605 54.11117024 22.48719468 53.59980774 23.93051147 C52.52689063 26.95087142 51.44598473 29.96820211 50.35864258 32.98339844 C48.96528382 36.8475612 47.58630841 40.71665236 46.21255779 44.58782387 C45.1550359 47.56595317 44.09282003 50.54238891 43.02887917 53.51823044 C42.51896952 54.9445038 42.00984873 56.37105945 41.5015316 57.79790115 C40.79009819 59.79084592 40.07307319 61.78168395 39.35424805 63.77197266 C38.94708054 64.90494781 38.53991302 66.03792297 38.1204071 67.20523071 C37 70 37 70 35 73 C32.1796875 73.29296875 32.1796875 73.29296875 28.875 73.1875 C27.23144531 73.14689453 27.23144531 73.14689453 25.5546875 73.10546875 C24.29011719 73.05326172 24.29011719 73.05326172 23 73 C22.26348433 70.97678561 21.52698865 68.95356395 20.79057312 66.93031311 C20.13123935 65.11887249 19.47182333 63.30746181 18.81233215 61.49607849 C16.99159342 56.49400148 15.17341399 51.49101606 13.35986328 46.48632812 C10.2326295 37.86024028 7.10579682 29.23586747 3.86328125 20.65234375 C3.43265381 19.49984131 3.00202637 18.34733887 2.55834961 17.15991211 C1.78891925 15.10529336 1.00778917 13.05500504 0.21313477 11.01000977 C-0.11759033 10.11983154 -0.44831543 9.22965332 -0.7890625 8.3125 C-1.07475098 7.56613281 -1.36043945 6.81976563 -1.65478516 6.05078125 C-2 4 -2 4 0 0 Z " fill="#666666" transform="translate(673,148)"/>
<path d="M0 0 C1.27875 0.00257813 2.5575 0.00515625 3.875 0.0078125 C5.15375 0.00523437 6.4325 0.00265625 7.75 0 C10.875 0.1328125 10.875 0.1328125 11.875 1.1328125 C11.94813567 3.66330652 11.96747527 6.16586087 11.9375 8.6953125 C11.93298828 9.40623047 11.92847656 10.11714844 11.92382812 10.84960938 C11.91200864 12.61071263 11.89407263 14.37177286 11.875 16.1328125 C13.03128906 16.09800781 13.03128906 16.09800781 14.2109375 16.0625 C15.21382813 16.04445312 16.21671875 16.02640625 17.25 16.0078125 C18.24773437 15.98460937 19.24546875 15.96140625 20.2734375 15.9375 C22.875 16.1328125 22.875 16.1328125 24.875 18.1328125 C25.140625 20.6640625 25.140625 20.6640625 25.125 23.6328125 C25.13273437 25.10234375 25.13273437 25.10234375 25.140625 26.6015625 C24.875 29.1328125 24.875 29.1328125 22.875 31.1328125 C20.2734375 31.328125 20.2734375 31.328125 17.25 31.2578125 C15.74566406 31.23074219 15.74566406 31.23074219 14.2109375 31.203125 C13.44007813 31.17992187 12.66921875 31.15671875 11.875 31.1328125 C11.99305535 36.93536603 12.11728962 42.73774138 12.24731445 48.54003906 C12.29069203 50.51493712 12.332365 52.48987337 12.37231445 54.46484375 C12.42994873 57.2995964 12.4936627 60.13415628 12.55859375 62.96875 C12.57530624 63.85525238 12.59201874 64.74175476 12.60923767 65.65512085 C12.58585211 70.03206405 12.58585211 70.03206405 13.875 74.1328125 C16.19853985 74.56266944 16.19853985 74.56266944 18.875 74.6953125 C23.77881679 75.03662929 23.77881679 75.03662929 24.875 76.1328125 C24.94744053 78.15245449 24.95877188 80.17448374 24.9375 82.1953125 C24.92847656 83.30003906 24.91945313 84.40476562 24.91015625 85.54296875 C24.89855469 86.39761719 24.88695312 87.25226563 24.875 88.1328125 C18.25885919 90.33819277 12.92260212 91.11424369 6.1875 88.9453125 C1.82118986 86.55619941 -1.18923937 84.22659214 -3.24951172 79.61669922 C-4.42750868 74.92902029 -4.37243215 70.51669267 -4.3203125 65.703125 C-4.3174826 64.71279266 -4.31465271 63.72246033 -4.31173706 62.70211792 C-4.3005847 59.55389074 -4.27548907 56.40595301 -4.25 53.2578125 C-4.23996382 51.11719162 -4.23083908 48.97656626 -4.22265625 46.8359375 C-4.20066158 41.60146453 -4.16723333 36.3671592 -4.125 31.1328125 C-4.90746094 31.14441406 -5.68992187 31.15601563 -6.49609375 31.16796875 C-7.50800781 31.17699219 -8.51992188 31.18601563 -9.5625 31.1953125 C-10.57183594 31.20691406 -11.58117187 31.21851563 -12.62109375 31.23046875 C-15.125 31.1328125 -15.125 31.1328125 -16.125 30.1328125 C-16.2239294 27.96800453 -16.254711 25.79987465 -16.25 23.6328125 C-16.25257813 22.446875 -16.25515625 21.2609375 -16.2578125 20.0390625 C-16.125 17.1328125 -16.125 17.1328125 -15.125 16.1328125 C-13.27212498 16.06054748 -11.41666122 16.0490003 -9.5625 16.0703125 C-8.55058594 16.07933594 -7.53867187 16.08835938 -6.49609375 16.09765625 C-5.32240234 16.11505859 -5.32240234 16.11505859 -4.125 16.1328125 C-4.13660156 15.06160156 -4.14820313 13.99039063 -4.16015625 12.88671875 C-4.16953299 11.48958507 -4.17863331 10.09244951 -4.1875 8.6953125 C-4.20006836 7.63473633 -4.20006836 7.63473633 -4.21289062 6.55273438 C-4.22153588 4.74587691 -4.17720011 2.93893647 -4.125 1.1328125 C-3.125 0.1328125 -3.125 0.1328125 0 0 Z " fill="#666666" transform="translate(416.125,131.8671875)"/>
<path d="M0 0 C1.17433594 0.01417969 2.34867188 0.02835938 3.55859375 0.04296875 C5.32396484 0.05263672 5.32396484 0.05263672 7.125 0.0625 C9.99609375 0.23046875 9.99609375 0.23046875 10.99609375 1.23046875 C11.06922942 3.76096277 11.08856902 6.26351712 11.05859375 8.79296875 C11.05408203 9.50388672 11.04957031 10.21480469 11.04492188 10.94726562 C11.03310239 12.70836888 11.01516638 14.46942911 10.99609375 16.23046875 C11.85074219 16.21886719 12.70539062 16.20726562 13.5859375 16.1953125 C15.24302734 16.18177734 15.24302734 16.18177734 16.93359375 16.16796875 C18.03574219 16.15636719 19.13789062 16.14476562 20.2734375 16.1328125 C22.99609375 16.23046875 22.99609375 16.23046875 23.99609375 17.23046875 C24.12124303 19.20666322 24.17182135 21.18785048 24.18359375 23.16796875 C24.19777344 24.24949219 24.21195313 25.33101562 24.2265625 26.4453125 C23.99609375 29.23046875 23.99609375 29.23046875 21.99609375 31.23046875 C18.36609375 31.23046875 14.73609375 31.23046875 10.99609375 31.23046875 C11.32609375 45.42046875 11.65609375 59.61046875 11.99609375 74.23046875 C15.62609375 74.56046875 19.25609375 74.89046875 22.99609375 75.23046875 C23.99609375 76.23046875 23.99609375 76.23046875 24.09375 78.953125 C24.08214844 80.05527344 24.07054687 81.15742188 24.05859375 82.29296875 C24.04957031 83.39769531 24.04054688 84.50242187 24.03125 85.640625 C24.01964844 86.49527344 24.00804687 87.34992188 23.99609375 88.23046875 C16.92755079 90.53856441 10.87665463 91.19111912 3.85546875 88.265625 C-0.62140798 85.77324615 -2.63141693 82.42178537 -4.12451172 77.64648438 C-5.23997775 72.84224541 -5.25699939 68.17301662 -5.19921875 63.26171875 C-5.19638885 62.34080444 -5.19355896 61.41989014 -5.19064331 60.47106934 C-5.179534 57.55739823 -5.15444703 54.64404544 -5.12890625 51.73046875 C-5.11886448 49.74349405 -5.10974073 47.75651449 -5.1015625 45.76953125 C-5.07962504 40.92305623 -5.04515986 36.07681628 -5.00390625 31.23046875 C-6.05191406 31.26527344 -6.05191406 31.26527344 -7.12109375 31.30078125 C-8.03117188 31.31882813 -8.94125 31.336875 -9.87890625 31.35546875 C-10.78382813 31.37867188 -11.68875 31.401875 -12.62109375 31.42578125 C-15.00390625 31.23046875 -15.00390625 31.23046875 -17.00390625 29.23046875 C-17.26953125 26.69921875 -17.26953125 26.69921875 -17.25390625 23.73046875 C-17.2590625 22.75078125 -17.26421875 21.77109375 -17.26953125 20.76171875 C-17.00390625 18.23046875 -17.00390625 18.23046875 -15.00390625 16.23046875 C-12.62109375 16.03515625 -12.62109375 16.03515625 -9.87890625 16.10546875 C-8.51378906 16.13253906 -8.51378906 16.13253906 -7.12109375 16.16015625 C-6.42242188 16.18335938 -5.72375 16.2065625 -5.00390625 16.23046875 C-5.02710938 15.24304688 -5.0503125 14.255625 -5.07421875 13.23828125 C-5.09226562 11.95695313 -5.1103125 10.675625 -5.12890625 9.35546875 C-5.15210938 8.07929688 -5.1753125 6.803125 -5.19921875 5.48828125 C-4.94180259 1.19457967 -4.31436952 0.33101145 0 0 Z " fill="#666666" transform="translate(535.00390625,131.76953125)"/>
<path d="M0 0 C1.27875 0.00257813 2.5575 0.00515625 3.875 0.0078125 C5.15375 0.00523437 6.4325 0.00265625 7.75 0 C10.875 0.1328125 10.875 0.1328125 11.875 1.1328125 C11.94813567 3.66330652 11.96747527 6.16586087 11.9375 8.6953125 C11.93298828 9.40623047 11.92847656 10.11714844 11.92382812 10.84960938 C11.91200864 12.61071263 11.89407263 14.37177286 11.875 16.1328125 C12.72964844 16.12121094 13.58429687 16.10960937 14.46484375 16.09765625 C16.12193359 16.08412109 16.12193359 16.08412109 17.8125 16.0703125 C18.91464844 16.05871094 20.01679687 16.04710937 21.15234375 16.03515625 C23.875 16.1328125 23.875 16.1328125 24.875 17.1328125 C24.97373816 19.13080822 25.00471799 21.13238408 25 23.1328125 C25.00386719 24.7725 25.00386719 24.7725 25.0078125 26.4453125 C24.875 29.1328125 24.875 29.1328125 23.875 30.1328125 C19.915 30.1328125 15.955 30.1328125 11.875 30.1328125 C12.205 43.9928125 12.535 57.8528125 12.875 72.1328125 C17.37829075 73.9341288 19.28310874 74.23717367 23.875 74.1328125 C24.875 75.1328125 24.875 75.1328125 24.97265625 78.07421875 C24.96105469 79.26917969 24.94945312 80.46414063 24.9375 81.6953125 C24.92847656 82.89285156 24.91945313 84.09039062 24.91015625 85.32421875 C24.89855469 86.25105469 24.88695312 87.17789063 24.875 88.1328125 C18.11527919 89.67080402 10.99370939 90.19094604 4.375 87.9453125 C-0.44420782 84.45138683 -2.64510298 80.84350219 -4.125 75.1328125 C-4.3882225 71.65354742 -4.35807374 68.19060564 -4.3203125 64.703125 C-4.3174826 63.71279266 -4.31465271 62.72246033 -4.31173706 61.70211792 C-4.3005847 58.55389074 -4.27548907 55.40595301 -4.25 52.2578125 C-4.23996382 50.11719162 -4.23083908 47.97656626 -4.22265625 45.8359375 C-4.20066158 40.60146453 -4.16723333 35.3671592 -4.125 30.1328125 C-4.90746094 30.14441406 -5.68992187 30.15601563 -6.49609375 30.16796875 C-7.50800781 30.17699219 -8.51992188 30.18601562 -9.5625 30.1953125 C-10.57183594 30.20691406 -11.58117187 30.21851563 -12.62109375 30.23046875 C-15.125 30.1328125 -15.125 30.1328125 -16.125 29.1328125 C-16.22373816 27.13481678 -16.25471799 25.13324092 -16.25 23.1328125 C-16.25257813 22.0396875 -16.25515625 20.9465625 -16.2578125 19.8203125 C-16.125 17.1328125 -16.125 17.1328125 -15.125 16.1328125 C-13.27212498 16.06054748 -11.41666122 16.0490003 -9.5625 16.0703125 C-8.55058594 16.07933594 -7.53867187 16.08835937 -6.49609375 16.09765625 C-5.32240234 16.11505859 -5.32240234 16.11505859 -4.125 16.1328125 C-4.13660156 15.06160156 -4.14820313 13.99039062 -4.16015625 12.88671875 C-4.16953299 11.48958507 -4.17863331 10.09244951 -4.1875 8.6953125 C-4.20006836 7.63473633 -4.20006836 7.63473633 -4.21289062 6.55273438 C-4.22153588 4.74587691 -4.17720011 2.93893647 -4.125 1.1328125 C-3.125 0.1328125 -3.125 0.1328125 0 0 Z " fill="#666666" transform="translate(960.125,357.8671875)"/>
<path d="M0 0 C1.79244141 0.01740234 1.79244141 0.01740234 3.62109375 0.03515625 C5.41740234 0.04869141 5.41740234 0.04869141 7.25 0.0625 C8.17683594 0.07410156 9.10367188 0.08570313 10.05859375 0.09765625 C11.15081886 3.35723875 10.99105528 5.08156832 9.72949219 8.25634766 C9.4096788 9.07744522 9.08986542 9.89854279 8.76036072 10.74452209 C8.39987137 11.63707199 8.03938202 12.52962189 7.66796875 13.44921875 C7.29591812 14.39667465 6.92386749 15.34413055 6.5405426 16.32029724 C5.30627072 19.45834244 4.05720261 22.59029142 2.80859375 25.72265625 C1.5106187 29.01453571 0.21688579 32.30806089 -1.07646179 35.60176086 C-1.97625518 37.89298478 -2.87724677 40.18373846 -3.77937317 42.4740448 C-8.83675849 55.3285514 -13.73693701 68.24199861 -18.62890625 81.16015625 C-19.46832809 83.37389723 -20.30784389 85.58760258 -21.14746094 87.80126953 C-23.08061865 92.89936834 -25.01191471 97.99816882 -26.94140625 103.09765625 C-29.08717262 103.12451563 -31.2330327 103.14398713 -33.37890625 103.16015625 C-34.57386719 103.17175781 -35.76882813 103.18335938 -37 103.1953125 C-39.94140625 103.09765625 -39.94140625 103.09765625 -40.94140625 102.09765625 C-40.53441993 95.54551285 -38.14331534 89.82426381 -35.77734375 83.75390625 C-35.35274872 82.64721588 -34.92815369 81.54052551 -34.49069214 80.40029907 C-33.10623083 76.79669192 -31.71148994 73.19716287 -30.31640625 69.59765625 C-29.36231639 67.12117721 -28.40886959 64.64445032 -27.45605469 62.16748047 C-25.5388159 57.18530246 -23.61699948 52.20491869 -21.69238281 47.22558594 C-19.19610397 40.76384943 -16.71741819 34.29553321 -14.24609375 27.82421875 C-13.21714285 25.13328866 -12.18789885 22.44247092 -11.1585083 19.75170898 C-10.51497935 18.06882696 -9.87203274 16.38572212 -9.22967529 14.70239258 C-8.34973181 12.39824278 -7.46639012 10.09542677 -6.58203125 7.79296875 C-6.32573944 7.11964508 -6.06944763 6.44632141 -5.8053894 5.75259399 C-3.63522194 0.1206913 -3.63522194 0.1206913 0 0 Z " fill="#666666" transform="translate(778.94140625,350.90234375)"/>
<path d="M0 0 C0.70253906 0.00386719 1.40507813 0.00773437 2.12890625 0.01171875 C2.83144531 0.00785156 3.53398438 0.00398438 4.2578125 0 C9.50229247 0.01010497 9.50229247 0.01010497 10.62890625 1.13671875 C10.73369531 3.27328917 10.76747279 5.41336213 10.77416992 7.55249023 C10.77752853 8.22242004 10.78088715 8.89234985 10.78434753 9.58258057 C10.79388346 11.80767649 10.79580197 14.03269738 10.796875 16.2578125 C10.80008578 17.79858939 10.80344971 19.33936597 10.80696106 20.88014221 C10.81295897 24.1141938 10.81480029 27.34821863 10.81420898 30.58227539 C10.81410733 34.73319395 10.82775978 38.88394158 10.84498119 43.0348196 C10.85608165 46.21833591 10.8581288 49.40181063 10.85759926 52.58534431 C10.85878232 54.11600394 10.86322228 55.64666455 10.87093163 57.17730522 C10.88069224 59.31551063 10.8778693 61.45334173 10.87182617 63.59155273 C10.87325119 64.80987289 10.87467621 66.02819305 10.87614441 67.28343201 C10.62890625 70.13671875 10.62890625 70.13671875 8.62890625 72.13671875 C5.66015625 72.40234375 5.66015625 72.40234375 2.12890625 72.38671875 C0.96359375 72.391875 -0.20171875 72.39703125 -1.40234375 72.40234375 C-4.37109375 72.13671875 -4.37109375 72.13671875 -6.37109375 70.13671875 C-6.61833191 67.28343201 -6.61833191 67.28343201 -6.61401367 63.59155273 C-6.61591202 62.91987061 -6.61781036 62.24818848 -6.61976624 61.55615234 C-6.62347699 59.33158775 -6.61276677 57.10734817 -6.6015625 54.8828125 C-6.60037087 53.34106993 -6.5999175 51.79932663 -6.60017395 50.25758362 C-6.59860863 47.02527324 -6.59031458 43.79307355 -6.5769043 40.56079102 C-6.55990014 36.40872185 -6.55609033 32.25677425 -6.55684948 28.10467434 C-6.55657814 24.9211968 -6.55110299 21.73774607 -6.54384804 18.55427742 C-6.54065663 17.02279933 -6.53869287 15.4913182 -6.53795433 13.95983696 C-6.53579653 11.82400158 -6.52706503 9.68829759 -6.51635742 7.55249023 C-6.51254562 6.33496567 -6.50873383 5.1174411 -6.50480652 3.86302185 C-6.27093088 -0.90552717 -4.2818575 0.00825021 0 0 Z " fill="#666666" transform="translate(643.37109375,373.86328125)"/>
<path d="M0 0 C1.17433594 0.01417969 2.34867188 0.02835938 3.55859375 0.04296875 C5.32396484 0.05263672 5.32396484 0.05263672 7.125 0.0625 C9.99609375 0.23046875 9.99609375 0.23046875 10.99609375 1.23046875 C11.09569527 3.43371849 11.12409132 5.64020365 11.12548828 7.84570312 C11.1272406 8.53674637 11.12899292 9.22778961 11.13079834 9.93977356 C11.13521629 12.23461382 11.13227908 14.52937764 11.12890625 16.82421875 C11.12957931 18.4122316 11.13054934 20.00024434 11.13180542 21.58825684 C11.13328232 24.92066425 11.13112811 28.25304491 11.12646484 31.58544922 C11.12076755 35.86645385 11.1240466 40.1473958 11.13003731 44.42839813 C11.13364315 47.70880611 11.13250423 50.98919912 11.12990952 54.26960754 C11.12924031 55.84853625 11.13006845 57.42746629 11.13238907 59.00639343 C11.13491598 61.20937728 11.1310745 63.41225824 11.12548828 65.61523438 C11.12469269 66.87130493 11.12389709 68.12737549 11.12307739 69.42150879 C10.99609375 72.23046875 10.99609375 72.23046875 9.99609375 73.23046875 C7.85301479 73.35584616 5.70530489 73.40621239 3.55859375 73.41796875 C1.79708984 73.43923828 1.79708984 73.43923828 0 73.4609375 C-3.00390625 73.23046875 -3.00390625 73.23046875 -5.00390625 71.23046875 C-5.25787354 68.38391113 -5.25787354 68.38391113 -5.26269531 64.70117188 C-5.26619995 64.03109604 -5.26970459 63.3610202 -5.27331543 62.67063904 C-5.28213357 60.45089423 -5.27628349 58.23146692 -5.26953125 56.01171875 C-5.27087788 54.47237079 -5.2728184 52.93302325 -5.27532959 51.39367676 C-5.27828096 48.16556758 -5.27398286 44.93756899 -5.26464844 41.70947266 C-5.25325382 37.56641081 -5.25981324 33.42360806 -5.27179337 29.28055573 C-5.27901167 26.10131875 -5.27672419 22.92214347 -5.27153778 19.74290466 C-5.2702012 18.2150418 -5.27184931 16.68717339 -5.27649689 15.15931702 C-5.28156172 13.02598176 -5.27385294 10.8930693 -5.26269531 8.75976562 C-5.26110413 7.54446167 -5.25951294 6.32915771 -5.25787354 5.07702637 C-4.8972384 1.03489668 -4.02855076 0.30908257 0 0 Z " fill="#666666" transform="translate(586.00390625,603.76953125)"/>
<path d="M0 0 C1.17433594 0.01417969 2.34867188 0.02835938 3.55859375 0.04296875 C5.32396484 0.05263672 5.32396484 0.05263672 7.125 0.0625 C9.99609375 0.23046875 9.99609375 0.23046875 10.99609375 1.23046875 C11.09569527 3.43371849 11.12409132 5.64020365 11.12548828 7.84570312 C11.1272406 8.53674637 11.12899292 9.22778961 11.13079834 9.93977356 C11.13521629 12.23461382 11.13227908 14.52937764 11.12890625 16.82421875 C11.12957931 18.4122316 11.13054934 20.00024434 11.13180542 21.58825684 C11.13328232 24.92066425 11.13112811 28.25304491 11.12646484 31.58544922 C11.12076755 35.86645385 11.1240466 40.1473958 11.13003731 44.42839813 C11.13364315 47.70880611 11.13250423 50.98919912 11.12990952 54.26960754 C11.12924031 55.84853625 11.13006845 57.42746629 11.13238907 59.00639343 C11.13491598 61.20937728 11.1310745 63.41225824 11.12548828 65.61523438 C11.12469269 66.87130493 11.12389709 68.12737549 11.12307739 69.42150879 C10.99609375 72.23046875 10.99609375 72.23046875 9.99609375 73.23046875 C7.85301479 73.35584616 5.70530489 73.40621239 3.55859375 73.41796875 C1.79708984 73.43923828 1.79708984 73.43923828 0 73.4609375 C-3.00390625 73.23046875 -3.00390625 73.23046875 -5.00390625 71.23046875 C-5.25787354 68.38391113 -5.25787354 68.38391113 -5.26269531 64.70117188 C-5.26619995 64.03109604 -5.26970459 63.3610202 -5.27331543 62.67063904 C-5.28213357 60.45089423 -5.27628349 58.23146692 -5.26953125 56.01171875 C-5.27087788 54.47237079 -5.2728184 52.93302325 -5.27532959 51.39367676 C-5.27828096 48.16556758 -5.27398286 44.93756899 -5.26464844 41.70947266 C-5.25325382 37.56641081 -5.25981324 33.42360806 -5.27179337 29.28055573 C-5.27901167 26.10131875 -5.27672419 22.92214347 -5.27153778 19.74290466 C-5.2702012 18.2150418 -5.27184931 16.68717339 -5.27649689 15.15931702 C-5.28156172 13.02598176 -5.27385294 10.8930693 -5.26269531 8.75976562 C-5.26110413 7.54446167 -5.25951294 6.32915771 -5.25787354 5.07702637 C-4.8972384 1.03489668 -4.02855076 0.30908257 0 0 Z " fill="#666666" transform="translate(749.00390625,147.76953125)"/>
<path d="M0 0 C1.69384766 1.18359375 1.69384766 1.18359375 3 3 C3.38818359 5.49609375 3.38818359 5.49609375 3.3984375 8.4375 C3.40230469 9.49710937 3.40617188 10.55671875 3.41015625 11.6484375 C3.39855469 12.75445312 3.38695312 13.86046875 3.375 15 C3.38660156 16.10601562 3.39820313 17.21203125 3.41015625 18.3515625 C3.40628906 19.41117187 3.40242187 20.47078125 3.3984375 21.5625 C3.39505371 22.53316406 3.39166992 23.50382812 3.38818359 24.50390625 C3 27 3 27 1.69384766 28.8125 C-1.17725968 30.82533743 -3.62937448 30.42132819 -7 30 C-9.9549725 27.04289794 -10.38341159 24.78459299 -10.3984375 20.68359375 C-10.40230469 19.67232422 -10.40617187 18.66105469 -10.41015625 17.61914062 C-10.39855469 16.56919922 -10.38695313 15.51925781 -10.375 14.4375 C-10.38660156 13.38369141 -10.39820312 12.32988281 -10.41015625 11.24414062 C-10.40628906 10.23416016 -10.40242188 9.22417969 -10.3984375 8.18359375 C-10.39505371 7.26118896 -10.39166992 6.33878418 -10.38818359 5.38842773 C-10 3 -10 3 -8.69384766 1.19946289 C-5.86013193 -0.8071738 -3.34303079 -0.35818187 0 0 Z " fill="#686868" transform="translate(127,355)"/>
<path d="M0 0 C1.75 1.24609375 1.75 1.24609375 3 3 C3.3984375 5.375 3.3984375 5.375 3.375 8 C3.38273438 8.86625 3.39046875 9.7325 3.3984375 10.625 C2.92173917 13.46649595 2.31614283 14.32606041 0 16 C-6.73765093 17.52140505 -6.73765093 17.52140505 -10.875 15.8125 C-13.17237593 13.85297347 -14.19319388 12.90450203 -15 10 C-14.92670204 5.89531449 -14.5826385 3.72829812 -12 0.5 C-7.89206779 -1.5539661 -4.36533634 -1.36518946 0 0 Z " fill="#666666" transform="translate(758,125)"/>
<path d="M0 0 C2.42835099 3.7359246 2.52974367 7.17469037 1.625 11.5 C-0.4375 14.0625 -0.4375 14.0625 -3.375 15.5 C-7.52392325 15.93672876 -10.93822682 16.04575791 -14.375 13.5 C-16.50892364 10.8579993 -16.47420498 8.69279611 -16.1875 5.4375 C-15.7917288 2.96162903 -15.48258988 1.65882315 -14.0625 -0.4375 C-9.38775368 -3.3808588 -4.64010366 -2.93059179 0 0 Z " fill="#666666" transform="translate(596.375,582.5)"/>
<path d="M0 0 C2.5 1 2.5 1 4 3 C5.08745801 7.49482645 5.57436819 9.71450929 3.6875 13.9375 C1.8065392 16.23645209 0.90553952 16.89336311 -2.0234375 17.23828125 C-5.75027789 17.35590578 -8.26241712 17.41376601 -11.5625 15.5625 C-13.7145847 11.72617511 -13.74831272 8.29295189 -13 4 C-10.11042124 -1.15098823 -5.30675966 -0.77065076 0 0 Z " fill="#666666" transform="translate(650,350)"/>
</svg>
