<?xml version="1.0" encoding="UTF-8"?>
<svg xmlns="http://www.w3.org/2000/svg" xmlns:xlink="http://www.w3.org/1999/xlink" width="45px" height="44px" viewBox="0 0 44 44" version="1.1">
<g id="surface1">
<path style=" stroke:none;fill-rule:evenodd;fill:rgb(0%,0%,0%);fill-opacity:1;" d="M 21.933594 0 C 9.804688 0 0 10.085938 0 22.558594 C 0 32.53125 6.285156 40.96875 14.996094 43.957031 C 16.085938 44.183594 16.484375 43.46875 16.484375 42.875 C 16.484375 42.351562 16.453125 40.558594 16.453125 38.691406 C 10.351562 40.035156 9.078125 36.003906 9.078125 36.003906 C 8.097656 33.390625 6.644531 32.714844 6.644531 32.714844 C 4.648438 31.332031 6.792969 31.332031 6.792969 31.332031 C 9.007812 31.484375 10.167969 33.648438 10.167969 33.648438 C 12.128906 37.085938 15.289062 36.113281 16.558594 35.519531 C 16.742188 34.058594 17.320312 33.050781 17.941406 32.492188 C 13.074219 31.96875 7.953125 30.027344 7.953125 21.363281 C 7.953125 18.898438 8.824219 16.882812 10.207031 15.3125 C 9.984375 14.753906 9.222656 12.4375 10.421875 9.335938 C 10.421875 9.335938 12.273438 8.738281 16.453125 11.652344 C 18.238281 11.15625 20.082031 10.910156 21.933594 10.90625 C 23.789062 10.90625 25.675781 11.167969 27.417969 11.652344 C 31.59375 8.738281 33.445312 9.335938 33.445312 9.335938 C 34.648438 12.4375 33.882812 14.753906 33.664062 15.3125 C 35.078125 16.882812 35.914062 18.898438 35.914062 21.363281 C 35.914062 30.027344 30.796875 31.929688 25.890625 32.492188 C 26.691406 33.199219 27.382812 34.546875 27.382812 36.675781 C 27.382812 39.699219 27.34375 42.125 27.34375 42.875 C 27.34375 43.46875 27.742188 44.183594 28.832031 43.957031 C 37.550781 40.96875 43.832031 32.53125 43.832031 22.558594 C 43.871094 10.085938 34.027344 0 21.933594 0 Z M 21.933594 0 "/>
</g>
</svg>
